  0
SECTION
  2
BLOCKS
  0
ENDSEC
  0
SECTION
  2
ENTITIES
  0
LINE
  8
0
 10
4.00371
 20
9.91728
 11
3.9731
 21
9.98003
  0
LINE
  8
0
 10
3.9731
 20
9.98003
 11
3.9382
 21
10.0405
  0
LINE
  8
0
 10
3.9382
 20
10.0405
 11
3.89917
 21
10.0983
  0
LINE
  8
0
 10
3.89917
 20
10.0983
 11
3.8562
 21
10.1533
  0
LINE
  8
0
 10
3.8562
 20
10.1533
 11
3.80949
 21
10.2052
  0
LINE
  8
0
 10
3.80949
 20
10.2052
 11
3.75929
 21
10.2537
  0
LINE
  8
0
 10
3.75929
 20
10.2537
 11
3.70581
 21
10.2986
  0
LINE
  8
0
 10
3.70581
 20
10.2986
 11
3.64935
 21
10.3396
  0
LINE
  8
0
 10
3.64935
 20
10.3396
 11
3.59016
 21
10.3766
  0
LINE
  8
0
 10
3.59016
 20
10.3766
 11
3.52853
 21
10.4093
  0
LINE
  8
0
 10
3.52853
 20
10.4093
 11
3.46477
 21
10.4377
  0
LINE
  8
0
 10
3.46477
 20
10.4377
 11
3.39917
 21
10.4616
  0
LINE
  8
0
 10
3.39917
 20
10.4616
 11
3.33208
 21
10.4809
  0
LINE
  8
0
 10
3.33208
 20
10.4809
 11
3.26381
 21
10.4954
  0
LINE
  8
0
 10
3.26381
 20
10.4954
 11
3.19469
 21
10.5051
  0
LINE
  8
0
 10
3.19469
 20
10.5051
 11
3.12506
 21
10.5099
  0
LINE
  8
0
 10
3.12506
 20
10.5099
 11
3.05527
 21
10.5099
  0
LINE
  8
0
 10
3.05527
 20
10.5099
 11
2.98564
 21
10.5051
  0
LINE
  8
0
 10
2.98564
 20
10.5051
 11
2.91652
 21
10.4954
  0
LINE
  8
0
 10
2.91652
 20
10.4954
 11
2.84825
 21
10.4809
  0
LINE
  8
0
 10
2.84825
 20
10.4809
 11
2.78116
 21
10.4616
  0
LINE
  8
0
 10
2.78116
 20
10.4616
 11
2.71556
 21
10.4377
  0
LINE
  8
0
 10
2.71556
 20
10.4377
 11
2.65179
 21
10.4093
  0
LINE
  8
0
 10
2.65179
 20
10.4093
 11
2.59018
 21
10.3766
  0
LINE
  8
0
 10
2.59018
 20
10.3766
 11
2.53098
 21
10.3396
  0
LINE
  8
0
 10
2.53098
 20
10.3396
 11
2.47452
 21
10.2986
  0
LINE
  8
0
 10
2.47452
 20
10.2986
 11
2.42104
 21
10.2537
  0
LINE
  8
0
 10
2.42104
 20
10.2537
 11
-2.02957
 21
6.24635
  0
LINE
  8
0
 10
-2.02957
 20
6.24635
 11
-7.98564
 21
6.87234
  0
LINE
  8
0
 10
-7.98564
 20
6.87234
 11
-8.05527
 21
6.87723
  0
LINE
  8
0
 10
-8.05527
 20
6.87723
 11
-8.12506
 21
6.87723
  0
LINE
  8
0
 10
-8.12506
 20
6.87723
 11
-8.19469
 21
6.87234
  0
LINE
  8
0
 10
-8.19469
 20
6.87234
 11
-8.26381
 21
6.86264
  0
LINE
  8
0
 10
-8.26381
 20
6.86264
 11
-8.33208
 21
6.84813
  0
LINE
  8
0
 10
-8.33208
 20
6.84813
 11
-8.39917
 21
6.82889
  0
LINE
  8
0
 10
-8.39917
 20
6.82889
 11
-8.46477
 21
6.80501
  0
LINE
  8
0
 10
-8.46477
 20
6.80501
 11
-8.52853
 21
6.77663
  0
LINE
  8
0
 10
-8.52853
 20
6.77663
 11
-8.59015
 21
6.74385
  0
LINE
  8
0
 10
-8.59015
 20
6.74385
 11
-8.64935
 21
6.70686
  0
LINE
  8
0
 10
-8.64935
 20
6.70686
 11
-8.70581
 21
6.66585
  0
LINE
  8
0
 10
-8.70581
 20
6.66585
 11
-8.75929
 21
6.62097
  0
LINE
  8
0
 10
-8.75929
 20
6.62097
 11
-8.80949
 21
6.57249
  0
LINE
  8
0
 10
-8.80949
 20
6.57249
 11
-8.8562
 21
6.52061
  0
LINE
  8
0
 10
-8.8562
 20
6.52061
 11
-8.89917
 21
6.46562
  0
LINE
  8
0
 10
-8.89917
 20
6.46562
 11
-8.9382
 21
6.40775
  0
LINE
  8
0
 10
-8.9382
 20
6.40775
 11
-8.9731
 21
6.34731
  0
LINE
  8
0
 10
-8.9731
 20
6.34731
 11
-9.00371
 21
6.28456
  0
LINE
  8
0
 10
-9.00371
 20
6.28456
 11
-9.02985
 21
6.21985
  0
LINE
  8
0
 10
-9.02985
 20
6.21985
 11
-9.05142
 21
6.15347
  0
LINE
  8
0
 10
-9.05142
 20
6.15347
 11
-9.0683
 21
6.08574
  0
LINE
  8
0
 10
-9.0683
 20
6.08574
 11
-9.08043
 21
6.017
  0
LINE
  8
0
 10
-9.08043
 20
6.017
 11
-9.08772
 21
5.94759
  0
LINE
  8
0
 10
-9.08772
 20
5.94759
 11
-9.09016
 21
5.87784
  0
LINE
  8
0
 10
-9.09016
 20
5.87784
 11
-9.08772
 21
5.80809
  0
LINE
  8
0
 10
-9.08772
 20
5.80809
 11
-9.08043
 21
5.73868
  0
LINE
  8
0
 10
-9.08043
 20
5.73868
 11
-9.0683
 21
5.66994
  0
LINE
  8
0
 10
-9.0683
 20
5.66994
 11
-9.05142
 21
5.6022
  0
LINE
  8
0
 10
-9.05142
 20
5.6022
 11
-9.02985
 21
5.53583
  0
LINE
  8
0
 10
-9.02985
 20
5.53583
 11
-9.00371
 21
5.47112
  0
LINE
  8
0
 10
-9.00371
 20
5.47112
 11
-6.56779
 21
0
  0
LINE
  8
0
 10
-6.56779
 20
0
 11
-9.00371
 21
-5.47112
  0
LINE
  8
0
 10
-9.00371
 20
-5.47112
 11
-9.02985
 21
-5.53583
  0
LINE
  8
0
 10
-9.02985
 20
-5.53583
 11
-9.05142
 21
-5.6022
  0
LINE
  8
0
 10
-9.05142
 20
-5.6022
 11
-9.0683
 21
-5.66994
  0
LINE
  8
0
 10
-9.0683
 20
-5.66994
 11
-9.08043
 21
-5.73868
  0
LINE
  8
0
 10
-9.08043
 20
-5.73868
 11
-9.08772
 21
-5.80809
  0
LINE
  8
0
 10
-9.08772
 20
-5.80809
 11
-9.09016
 21
-5.87784
  0
LINE
  8
0
 10
-9.09016
 20
-5.87784
 11
-9.08772
 21
-5.94759
  0
LINE
  8
0
 10
-9.08772
 20
-5.94759
 11
-9.08043
 21
-6.017
  0
LINE
  8
0
 10
-9.08043
 20
-6.017
 11
-9.0683
 21
-6.08574
  0
LINE
  8
0
 10
-9.0683
 20
-6.08574
 11
-9.05142
 21
-6.15347
  0
LINE
  8
0
 10
-9.05142
 20
-6.15347
 11
-9.02985
 21
-6.21985
  0
LINE
  8
0
 10
-9.02985
 20
-6.21985
 11
-9.00371
 21
-6.28456
  0
LINE
  8
0
 10
-9.00371
 20
-6.28456
 11
-8.9731
 21
-6.34731
  0
LINE
  8
0
 10
-8.9731
 20
-6.34731
 11
-8.9382
 21
-6.40775
  0
LINE
  8
0
 10
-8.9382
 20
-6.40775
 11
-8.89917
 21
-6.46562
  0
LINE
  8
0
 10
-8.89917
 20
-6.46562
 11
-8.8562
 21
-6.52061
  0
LINE
  8
0
 10
-8.8562
 20
-6.52061
 11
-8.80949
 21
-6.57249
  0
LINE
  8
0
 10
-8.80949
 20
-6.57249
 11
-8.75929
 21
-6.62097
  0
LINE
  8
0
 10
-8.75929
 20
-6.62097
 11
-8.70581
 21
-6.66585
  0
LINE
  8
0
 10
-8.70581
 20
-6.66585
 11
-8.64935
 21
-6.70686
  0
LINE
  8
0
 10
-8.64935
 20
-6.70686
 11
-8.59016
 21
-6.74385
  0
LINE
  8
0
 10
-8.59016
 20
-6.74385
 11
-8.52853
 21
-6.77663
  0
LINE
  8
0
 10
-8.52853
 20
-6.77663
 11
-8.46477
 21
-6.80501
  0
LINE
  8
0
 10
-8.46477
 20
-6.80501
 11
-8.39917
 21
-6.82889
  0
LINE
  8
0
 10
-8.39917
 20
-6.82889
 11
-8.33208
 21
-6.84813
  0
LINE
  8
0
 10
-8.33208
 20
-6.84813
 11
-8.26381
 21
-6.86264
  0
LINE
  8
0
 10
-8.26381
 20
-6.86264
 11
-8.19469
 21
-6.87234
  0
LINE
  8
0
 10
-8.19469
 20
-6.87234
 11
-8.12506
 21
-6.87723
  0
LINE
  8
0
 10
-8.12506
 20
-6.87723
 11
-8.05527
 21
-6.87723
  0
LINE
  8
0
 10
-8.05527
 20
-6.87723
 11
-7.98564
 21
-6.87234
  0
LINE
  8
0
 10
-7.98564
 20
-6.87234
 11
-2.02957
 21
-6.24635
  0
LINE
  8
0
 10
-2.02957
 20
-6.24635
 11
2.42104
 21
-10.2537
  0
LINE
  8
0
 10
2.42104
 20
-10.2537
 11
2.47452
 21
-10.2986
  0
LINE
  8
0
 10
2.47452
 20
-10.2986
 11
2.53098
 21
-10.3396
  0
LINE
  8
0
 10
2.53098
 20
-10.3396
 11
2.59016
 21
-10.3766
  0
LINE
  8
0
 10
2.59016
 20
-10.3766
 11
2.65179
 21
-10.4093
  0
LINE
  8
0
 10
2.65179
 20
-10.4093
 11
2.71556
 21
-10.4377
  0
LINE
  8
0
 10
2.71556
 20
-10.4377
 11
2.78116
 21
-10.4616
  0
LINE
  8
0
 10
2.78116
 20
-10.4616
 11
2.84825
 21
-10.4809
  0
LINE
  8
0
 10
2.84825
 20
-10.4809
 11
2.91652
 21
-10.4954
  0
LINE
  8
0
 10
2.91652
 20
-10.4954
 11
2.98564
 21
-10.5051
  0
LINE
  8
0
 10
2.98564
 20
-10.5051
 11
3.05527
 21
-10.5099
  0
LINE
  8
0
 10
3.05527
 20
-10.5099
 11
3.12506
 21
-10.5099
  0
LINE
  8
0
 10
3.12506
 20
-10.5099
 11
3.19469
 21
-10.5051
  0
LINE
  8
0
 10
3.19469
 20
-10.5051
 11
3.26381
 21
-10.4954
  0
LINE
  8
0
 10
3.26381
 20
-10.4954
 11
3.33208
 21
-10.4809
  0
LINE
  8
0
 10
3.33208
 20
-10.4809
 11
3.39917
 21
-10.4616
  0
LINE
  8
0
 10
3.39917
 20
-10.4616
 11
3.46477
 21
-10.4377
  0
LINE
  8
0
 10
3.46477
 20
-10.4377
 11
3.52853
 21
-10.4093
  0
LINE
  8
0
 10
3.52853
 20
-10.4093
 11
3.59016
 21
-10.3766
  0
LINE
  8
0
 10
3.59016
 20
-10.3766
 11
3.64935
 21
-10.3396
  0
LINE
  8
0
 10
3.64935
 20
-10.3396
 11
3.70581
 21
-10.2986
  0
LINE
  8
0
 10
3.70581
 20
-10.2986
 11
3.75929
 21
-10.2537
  0
LINE
  8
0
 10
3.75929
 20
-10.2537
 11
3.80949
 21
-10.2052
  0
LINE
  8
0
 10
3.80949
 20
-10.2052
 11
3.8562
 21
-10.1533
  0
LINE
  8
0
 10
3.8562
 20
-10.1533
 11
3.89917
 21
-10.0983
  0
LINE
  8
0
 10
3.89917
 20
-10.0983
 11
3.9382
 21
-10.0405
  0
LINE
  8
0
 10
3.9382
 20
-10.0405
 11
3.9731
 21
-9.98003
  0
LINE
  8
0
 10
3.9731
 20
-9.98003
 11
4.00371
 21
-9.91728
  0
LINE
  8
0
 10
4.00371
 20
-9.91728
 11
4.02985
 21
-9.85257
  0
LINE
  8
0
 10
4.02985
 20
-9.85257
 11
4.05142
 21
-9.78619
  0
LINE
  8
0
 10
4.05142
 20
-9.78619
 11
4.0683
 21
-9.71846
  0
LINE
  8
0
 10
4.0683
 20
-9.71846
 11
5.31346
 21
-3.86044
  0
LINE
  8
0
 10
5.31346
 20
-3.86044
 11
10.5
 21
-0.866013
  0
LINE
  8
0
 10
10.5
 20
-0.866013
 11
10.5592
 21
-0.829025
  0
LINE
  8
0
 10
10.5592
 20
-0.829025
 11
10.6156
 21
-0.78801
  0
LINE
  8
0
 10
10.6156
 20
-0.78801
 11
10.6691
 21
-0.743134
  0
LINE
  8
0
 10
10.6691
 20
-0.743134
 11
10.7193
 21
-0.694656
  0
LINE
  8
0
 10
10.7193
 20
-0.694656
 11
10.766
 21
-0.642776
  0
LINE
  8
0
 10
10.766
 20
-0.642776
 11
10.809
 21
-0.587784
  0
LINE
  8
0
 10
10.809
 20
-0.587784
 11
10.848
 21
-0.529907
  0
LINE
  8
0
 10
10.848
 20
-0.529907
 11
10.8829
 21
-0.469467
  0
LINE
  8
0
 10
10.8829
 20
-0.469467
 11
10.9135
 21
-0.406723
  0
LINE
  8
0
 10
10.9135
 20
-0.406723
 11
10.9397
 21
-0.34201
  0
LINE
  8
0
 10
10.9397
 20
-0.34201
 11
10.9613
 21
-0.275635
  0
LINE
  8
0
 10
10.9613
 20
-0.275635
 11
10.9781
 21
-0.207901
  0
LINE
  8
0
 10
10.9781
 20
-0.207901
 11
10.9903
 21
-0.13916
  0
LINE
  8
0
 10
10.9903
 20
-0.13916
 11
10.9976
 21
-0.0697479
  0
LINE
  8
0
 10
10.9976
 20
-0.0697479
 11
11
 21
0
  0
LINE
  8
0
 10
11
 20
0
 11
10.9976
 21
0.0697479
  0
LINE
  8
0
 10
10.9976
 20
0.0697479
 11
10.9903
 21
0.13916
  0
LINE
  8
0
 10
10.9903
 20
0.13916
 11
10.9781
 21
0.207901
  0
LINE
  8
0
 10
10.9781
 20
0.207901
 11
10.9613
 21
0.275635
  0
LINE
  8
0
 10
10.9613
 20
0.275635
 11
10.9397
 21
0.34201
  0
LINE
  8
0
 10
10.9397
 20
0.34201
 11
10.9135
 21
0.406723
  0
LINE
  8
0
 10
10.9135
 20
0.406723
 11
10.8829
 21
0.469467
  0
LINE
  8
0
 10
10.8829
 20
0.469467
 11
10.848
 21
0.529907
  0
LINE
  8
0
 10
10.848
 20
0.529907
 11
10.809
 21
0.587784
  0
LINE
  8
0
 10
10.809
 20
0.587784
 11
10.766
 21
0.642776
  0
LINE
  8
0
 10
10.766
 20
0.642776
 11
10.7193
 21
0.694656
  0
LINE
  8
0
 10
10.7193
 20
0.694656
 11
10.6691
 21
0.743134
  0
LINE
  8
0
 10
10.6691
 20
0.743134
 11
10.6156
 21
0.78801
  0
LINE
  8
0
 10
10.6156
 20
0.78801
 11
10.5592
 21
0.829025
  0
LINE
  8
0
 10
10.5592
 20
0.829025
 11
10.5
 21
0.866013
  0
LINE
  8
0
 10
10.5
 20
0.866013
 11
5.31346
 21
3.86046
  0
LINE
  8
0
 10
5.31346
 20
3.86046
 11
4.0683
 21
9.71846
  0
LINE
  8
0
 10
4.0683
 20
9.71846
 11
4.05142
 21
9.78619
  0
LINE
  8
0
 10
4.05142
 20
9.78619
 11
4.02985
 21
9.85257
  0
LINE
  8
0
 10
4.02985
 20
9.85257
 11
4.00371
 21
9.91728
  0
ENDSEC
  0
SECTION
  2
OBJECTS
  0
DICTIONARY
  0
ENDSEC
  0
EOF
