  0
SECTION
  2
BLOCKS
  0
ENDSEC
  0
SECTION
  2
ENTITIES
  0
LINE
  8
0
 10
-6.87236
 20
-8.19468
 11
-6.86264
 21
-8.26381
  0
LINE
  8
0
 10
-6.86264
 20
-8.26381
 11
-6.84813
 21
-8.33208
  0
LINE
  8
0
 10
-6.84813
 20
-8.33208
 11
-6.82889
 21
-8.39919
  0
LINE
  8
0
 10
-6.82889
 20
-8.39919
 11
-6.80502
 21
-8.46476
  0
LINE
  8
0
 10
-6.80502
 20
-8.46476
 11
-6.77663
 21
-8.52854
  0
LINE
  8
0
 10
-6.77663
 20
-8.52854
 11
-6.74387
 21
-8.59016
  0
LINE
  8
0
 10
-6.74387
 20
-8.59016
 11
-6.70687
 21
-8.64936
  0
LINE
  8
0
 10
-6.70687
 20
-8.64936
 11
-6.66585
 21
-8.70582
  0
LINE
  8
0
 10
-6.66585
 20
-8.70582
 11
-6.62099
 21
-8.75928
  0
LINE
  8
0
 10
-6.62099
 20
-8.75928
 11
-6.5725
 21
-8.8095
  0
LINE
  8
0
 10
-6.5725
 20
-8.8095
 11
-6.52063
 21
-8.8562
  0
LINE
  8
0
 10
-6.52063
 20
-8.8562
 11
-6.46562
 21
-8.89918
  0
LINE
  8
0
 10
-6.46562
 20
-8.89918
 11
-6.40775
 21
-8.93821
  0
LINE
  8
0
 10
-6.40775
 20
-8.93821
 11
-6.34731
 21
-8.97311
  0
LINE
  8
0
 10
-6.34731
 20
-8.97311
 11
-6.28457
 21
-9.0037
  0
LINE
  8
0
 10
-6.28457
 20
-9.0037
 11
-6.21986
 21
-9.02986
  0
LINE
  8
0
 10
-6.21986
 20
-9.02986
 11
-6.15348
 21
-9.05143
  0
LINE
  8
0
 10
-6.15348
 20
-9.05143
 11
-6.08576
 21
-9.0683
  0
LINE
  8
0
 10
-6.08576
 20
-9.0683
 11
-6.01702
 21
-9.08043
  0
LINE
  8
0
 10
-6.01702
 20
-9.08043
 11
-5.94761
 21
-9.08772
  0
LINE
  8
0
 10
-5.94761
 20
-9.08772
 11
-5.87785
 21
-9.09016
  0
LINE
  8
0
 10
-5.87785
 20
-9.09016
 11
-5.80809
 21
-9.08772
  0
LINE
  8
0
 10
-5.80809
 20
-9.08772
 11
-5.73867
 21
-9.08043
  0
LINE
  8
0
 10
-5.73867
 20
-9.08043
 11
-5.66994
 21
-9.0683
  0
LINE
  8
0
 10
-5.66994
 20
-9.0683
 11
-5.60221
 21
-9.05141
  0
LINE
  8
0
 10
-5.60221
 20
-9.05141
 11
-5.53584
 21
-9.02985
  0
LINE
  8
0
 10
-5.53584
 20
-9.02985
 11
-5.47111
 21
-9.0037
  0
LINE
  8
0
 10
-5.47111
 20
-9.0037
 11
7.9559e-06
 21
-6.56781
  0
LINE
  8
0
 10
7.9559e-06
 20
-6.56781
 11
5.47112
 21
-9.00369
  0
LINE
  8
0
 10
5.47112
 20
-9.00369
 11
5.53583
 21
-9.02985
  0
LINE
  8
0
 10
5.53583
 20
-9.02985
 11
5.60221
 21
-9.05141
  0
LINE
  8
0
 10
5.60221
 20
-9.05141
 11
5.66994
 21
-9.06829
  0
LINE
  8
0
 10
5.66994
 20
-9.06829
 11
5.73868
 21
-9.08042
  0
LINE
  8
0
 10
5.73868
 20
-9.08042
 11
5.80809
 21
-9.08771
  0
LINE
  8
0
 10
5.80809
 20
-9.08771
 11
5.87784
 21
-9.09014
  0
LINE
  8
0
 10
5.87784
 20
-9.09014
 11
5.94761
 21
-9.0877
  0
LINE
  8
0
 10
5.94761
 20
-9.0877
 11
6.01702
 21
-9.08042
  0
LINE
  8
0
 10
6.01702
 20
-9.08042
 11
6.08575
 21
-9.06829
  0
LINE
  8
0
 10
6.08575
 20
-9.06829
 11
6.15349
 21
-9.0514
  0
LINE
  8
0
 10
6.15349
 20
-9.0514
 11
6.21986
 21
-9.02984
  0
LINE
  8
0
 10
6.21986
 20
-9.02984
 11
6.28459
 21
-9.00369
  0
LINE
  8
0
 10
6.28459
 20
-9.00369
 11
6.34731
 21
-8.9731
  0
LINE
  8
0
 10
6.34731
 20
-8.9731
 11
6.40777
 21
-8.93819
  0
LINE
  8
0
 10
6.40777
 20
-8.93819
 11
6.46563
 21
-8.89917
  0
LINE
  8
0
 10
6.46563
 20
-8.89917
 11
6.52063
 21
-8.85618
  0
LINE
  8
0
 10
6.52063
 20
-8.85618
 11
6.5725
 21
-8.80949
  0
LINE
  8
0
 10
6.5725
 20
-8.80949
 11
6.621
 21
-8.75927
  0
LINE
  8
0
 10
6.621
 20
-8.75927
 11
6.66586
 21
-8.7058
  0
LINE
  8
0
 10
6.66586
 20
-8.7058
 11
6.70689
 21
-8.64934
  0
LINE
  8
0
 10
6.70689
 20
-8.64934
 11
6.74387
 21
-8.59014
  0
LINE
  8
0
 10
6.74387
 20
-8.59014
 11
6.77665
 21
-8.52851
  0
LINE
  8
0
 10
6.77665
 20
-8.52851
 11
6.80503
 21
-8.46475
  0
LINE
  8
0
 10
6.80503
 20
-8.46475
 11
6.82891
 21
-8.39917
  0
LINE
  8
0
 10
6.82891
 20
-8.39917
 11
6.84814
 21
-8.33208
  0
LINE
  8
0
 10
6.84814
 20
-8.33208
 11
6.86265
 21
-8.26381
  0
LINE
  8
0
 10
6.86265
 20
-8.26381
 11
6.87236
 21
-8.19469
  0
LINE
  8
0
 10
6.87236
 20
-8.19469
 11
6.87724
 21
-8.12506
  0
LINE
  8
0
 10
6.87724
 20
-8.12506
 11
6.87723
 21
-8.05526
  0
LINE
  8
0
 10
6.87723
 20
-8.05526
 11
6.87237
 21
-7.98564
  0
LINE
  8
0
 10
6.87237
 20
-7.98564
 11
6.24634
 21
-2.02956
  0
LINE
  8
0
 10
6.24634
 20
-2.02956
 11
10.2537
 21
2.42104
  0
LINE
  8
0
 10
10.2537
 20
2.42104
 11
10.2986
 21
2.47451
  0
LINE
  8
0
 10
10.2986
 20
2.47451
 11
10.3396
 21
2.53097
  0
LINE
  8
0
 10
10.3396
 20
2.53097
 11
10.3766
 21
2.59017
  0
LINE
  8
0
 10
10.3766
 20
2.59017
 11
10.4094
 21
2.6518
  0
LINE
  8
0
 10
10.4094
 20
2.6518
 11
10.4377
 21
2.71556
  0
LINE
  8
0
 10
10.4377
 20
2.71556
 11
10.4616
 21
2.78114
  0
LINE
  8
0
 10
10.4616
 20
2.78114
 11
10.4808
 21
2.84823
  0
LINE
  8
0
 10
10.4808
 20
2.84823
 11
10.4954
 21
2.9165
  0
LINE
  8
0
 10
10.4954
 20
2.9165
 11
10.5051
 21
2.98562
  0
LINE
  8
0
 10
10.5051
 20
2.98562
 11
10.5099
 21
3.05526
  0
LINE
  8
0
 10
10.5099
 20
3.05526
 11
10.5099
 21
3.12505
  0
LINE
  8
0
 10
10.5099
 20
3.12505
 11
10.5051
 21
3.19467
  0
LINE
  8
0
 10
10.5051
 20
3.19467
 11
10.4953
 21
3.26381
  0
LINE
  8
0
 10
10.4953
 20
3.26381
 11
10.4808
 21
3.33207
  0
LINE
  8
0
 10
10.4808
 20
3.33207
 11
10.4616
 21
3.39918
  0
LINE
  8
0
 10
10.4616
 20
3.39918
 11
10.4377
 21
3.46476
  0
LINE
  8
0
 10
10.4377
 20
3.46476
 11
10.4093
 21
3.52853
  0
LINE
  8
0
 10
10.4093
 20
3.52853
 11
10.3766
 21
3.59015
  0
LINE
  8
0
 10
10.3766
 20
3.59015
 11
10.3396
 21
3.64935
  0
LINE
  8
0
 10
10.3396
 20
3.64935
 11
10.2986
 21
3.70581
  0
LINE
  8
0
 10
10.2986
 20
3.70581
 11
10.2537
 21
3.75928
  0
LINE
  8
0
 10
10.2537
 20
3.75928
 11
10.2052
 21
3.80949
  0
LINE
  8
0
 10
10.2052
 20
3.80949
 11
10.1533
 21
3.85619
  0
LINE
  8
0
 10
10.1533
 20
3.85619
 11
10.0983
 21
3.89917
  0
LINE
  8
0
 10
10.0983
 20
3.89917
 11
10.0405
 21
3.9382
  0
LINE
  8
0
 10
10.0405
 20
3.9382
 11
9.98002
 21
3.9731
  0
LINE
  8
0
 10
9.98002
 20
3.9731
 11
9.91728
 21
4.00369
  0
LINE
  8
0
 10
9.91728
 20
4.00369
 11
9.85257
 21
4.02985
  0
LINE
  8
0
 10
9.85257
 20
4.02985
 11
9.78619
 21
4.05142
  0
LINE
  8
0
 10
9.78619
 20
4.05142
 11
9.71847
 21
4.06829
  0
LINE
  8
0
 10
9.71847
 20
4.06829
 11
3.86047
 21
5.31346
  0
LINE
  8
0
 10
3.86047
 20
5.31346
 11
0.866023
 21
10.5
  0
LINE
  8
0
 10
0.866023
 20
10.5
 11
0.829026
 21
10.5592
  0
LINE
  8
0
 10
0.829026
 20
10.5592
 11
0.788007
 21
10.6156
  0
LINE
  8
0
 10
0.788007
 20
10.6156
 11
0.743144
 21
10.6691
  0
LINE
  8
0
 10
0.743144
 20
10.6691
 11
0.694659
 21
10.7193
  0
LINE
  8
0
 10
0.694659
 20
10.7193
 11
0.642784
 21
10.766
  0
LINE
  8
0
 10
0.642784
 20
10.766
 11
0.587776
 21
10.809
  0
LINE
  8
0
 10
0.587776
 20
10.809
 11
0.529913
 21
10.848
  0
LINE
  8
0
 10
0.529913
 20
10.848
 11
0.46947
 21
10.8829
  0
LINE
  8
0
 10
0.46947
 20
10.8829
 11
0.40673
 21
10.9135
  0
LINE
  8
0
 10
0.40673
 20
10.9135
 11
0.342021
 21
10.9397
  0
LINE
  8
0
 10
0.342021
 20
10.9397
 11
0.275643
 21
10.9613
  0
LINE
  8
0
 10
0.275643
 20
10.9613
 11
0.207916
 21
10.9781
  0
LINE
  8
0
 10
0.207916
 20
10.9781
 11
0.139178
 21
10.9903
  0
LINE
  8
0
 10
0.139178
 20
10.9903
 11
0.0697673
 21
10.9975
  0
LINE
  8
0
 10
0.0697673
 20
10.9975
 11
1.22303e-05
 21
11
  0
LINE
  8
0
 10
1.22303e-05
 20
11
 11
-0.0697541
 21
10.9975
  0
LINE
  8
0
 10
-0.0697541
 20
10.9975
 11
-0.13917
 21
10.9903
  0
LINE
  8
0
 10
-0.13917
 20
10.9903
 11
-0.207912
 21
10.9781
  0
LINE
  8
0
 10
-0.207912
 20
10.9781
 11
-0.275634
 21
10.9612
  0
LINE
  8
0
 10
-0.275634
 20
10.9612
 11
-0.342003
 21
10.9397
  0
LINE
  8
0
 10
-0.342003
 20
10.9397
 11
-0.406734
 21
10.9135
  0
LINE
  8
0
 10
-0.406734
 20
10.9135
 11
-0.469459
 21
10.8829
  0
LINE
  8
0
 10
-0.469459
 20
10.8829
 11
-0.529912
 21
10.848
  0
LINE
  8
0
 10
-0.529912
 20
10.848
 11
-0.587771
 21
10.809
  0
LINE
  8
0
 10
-0.587771
 20
10.809
 11
-0.642778
 21
10.766
  0
LINE
  8
0
 10
-0.642778
 20
10.766
 11
-0.694644
 21
10.7193
  0
LINE
  8
0
 10
-0.694644
 20
10.7193
 11
-0.743144
 21
10.6691
  0
LINE
  8
0
 10
-0.743144
 20
10.6691
 11
-0.788
 21
10.6156
  0
LINE
  8
0
 10
-0.788
 20
10.6156
 11
-0.829031
 21
10.5592
  0
LINE
  8
0
 10
-0.829031
 20
10.5592
 11
-0.866012
 21
10.5
  0
LINE
  8
0
 10
-0.866012
 20
10.5
 11
-3.86046
 21
5.31345
  0
LINE
  8
0
 10
-3.86046
 20
5.31345
 11
-9.71848
 21
4.06831
  0
LINE
  8
0
 10
-9.71848
 20
4.06831
 11
-9.7862
 21
4.05142
  0
LINE
  8
0
 10
-9.7862
 20
4.05142
 11
-9.85257
 21
4.02986
  0
LINE
  8
0
 10
-9.85257
 20
4.02986
 11
-9.9173
 21
4.0037
  0
LINE
  8
0
 10
-9.9173
 20
4.0037
 11
-9.98003
 21
3.97311
  0
LINE
  8
0
 10
-9.98003
 20
3.97311
 11
-10.0405
 21
3.93821
  0
LINE
  8
0
 10
-10.0405
 20
3.93821
 11
-10.0983
 21
3.89918
  0
LINE
  8
0
 10
-10.0983
 20
3.89918
 11
-10.1533
 21
3.8562
  0
LINE
  8
0
 10
-10.1533
 20
3.8562
 11
-10.2052
 21
3.8095
  0
LINE
  8
0
 10
-10.2052
 20
3.8095
 11
-10.2537
 21
3.75929
  0
LINE
  8
0
 10
-10.2537
 20
3.75929
 11
-10.2986
 21
3.70582
  0
LINE
  8
0
 10
-10.2986
 20
3.70582
 11
-10.3396
 21
3.64936
  0
LINE
  8
0
 10
-10.3396
 20
3.64936
 11
-10.3766
 21
3.59016
  0
LINE
  8
0
 10
-10.3766
 20
3.59016
 11
-10.4094
 21
3.52853
  0
LINE
  8
0
 10
-10.4094
 20
3.52853
 11
-10.4377
 21
3.46477
  0
LINE
  8
0
 10
-10.4377
 20
3.46477
 11
-10.4616
 21
3.39919
  0
LINE
  8
0
 10
-10.4616
 20
3.39919
 11
-10.4809
 21
3.3321
  0
LINE
  8
0
 10
-10.4809
 20
3.3321
 11
-10.4954
 21
3.26383
  0
LINE
  8
0
 10
-10.4954
 20
3.26383
 11
-10.5051
 21
3.1947
  0
LINE
  8
0
 10
-10.5051
 20
3.1947
 11
-10.51
 21
3.12507
  0
LINE
  8
0
 10
-10.51
 20
3.12507
 11
-10.5099
 21
3.05528
  0
LINE
  8
0
 10
-10.5099
 20
3.05528
 11
-10.5051
 21
2.98565
  0
LINE
  8
0
 10
-10.5051
 20
2.98565
 11
-10.4954
 21
2.91652
  0
LINE
  8
0
 10
-10.4954
 20
2.91652
 11
-10.4808
 21
2.84826
  0
LINE
  8
0
 10
-10.4808
 20
2.84826
 11
-10.4616
 21
2.78115
  0
LINE
  8
0
 10
-10.4616
 20
2.78115
 11
-10.4377
 21
2.71557
  0
LINE
  8
0
 10
-10.4377
 20
2.71557
 11
-10.4093
 21
2.6518
  0
LINE
  8
0
 10
-10.4093
 20
2.6518
 11
-10.3766
 21
2.59018
  0
LINE
  8
0
 10
-10.3766
 20
2.59018
 11
-10.3396
 21
2.53097
  0
LINE
  8
0
 10
-10.3396
 20
2.53097
 11
-10.2986
 21
2.47452
  0
LINE
  8
0
 10
-10.2986
 20
2.47452
 11
-10.2537
 21
2.42105
  0
LINE
  8
0
 10
-10.2537
 20
2.42105
 11
-6.24635
 21
-2.02956
  0
LINE
  8
0
 10
-6.24635
 20
-2.02956
 11
-6.87235
 21
-7.98563
  0
LINE
  8
0
 10
-6.87235
 20
-7.98563
 11
-6.87723
 21
-8.05527
  0
LINE
  8
0
 10
-6.87723
 20
-8.05527
 11
-6.87722
 21
-8.12506
  0
LINE
  8
0
 10
-6.87722
 20
-8.12506
 11
-6.87236
 21
-8.19468
  0
ENDSEC
  0
SECTION
  2
OBJECTS
  0
DICTIONARY
  0
ENDSEC
  0
EOF
