  0
SECTION
  2
BLOCKS
  0
ENDSEC
  0
SECTION
  2
ENTITIES
  0
LINE
  8
0
 10
21.6405
 20
-0.084261
 11
21.8629
 21
-0.0400237
  0
LINE
  8
0
 10
21.8629
 20
-0.0400237
 11
22.0648
 21
0.0336855
  0
LINE
  8
0
 10
22.0648
 20
0.0336855
 11
22.2462
 21
0.136902
  0
LINE
  8
0
 10
22.2462
 20
0.136902
 11
22.4092
 21
0.274595
  0
LINE
  8
0
 10
22.4092
 20
0.274595
 11
22.5553
 21
0.450954
  0
LINE
  8
0
 10
22.5553
 20
0.450954
 11
22.6845
 21
0.665992
  0
LINE
  8
0
 10
22.6845
 20
0.665992
 11
22.7967
 21
0.919707
  0
LINE
  8
0
 10
22.7967
 20
0.919707
 11
22.8132
 21
0.919707
  0
LINE
  8
0
 10
22.8132
 20
0.919707
 11
22.8142
 21
0.803389
  0
LINE
  8
0
 10
22.8142
 20
0.803389
 11
22.8169
 21
0.676437
  0
LINE
  8
0
 10
22.8169
 20
0.676437
 11
22.8215
 21
0.53885
  0
LINE
  8
0
 10
22.8215
 20
0.53885
 11
22.8351
 21
0.251343
  0
LINE
  8
0
 10
22.8351
 20
0.251343
 11
22.842
 21
0.139806
  0
LINE
  8
0
 10
22.842
 20
0.139806
 11
22.8486
 21
0.0560285
  0
LINE
  8
0
 10
22.8486
 20
0.0560285
 11
22.8549
 21
0
  0
LINE
  8
0
 10
22.8549
 20
0
 11
23.5695
 21
0
  0
LINE
  8
0
 10
23.5695
 20
0
 11
23.5585
 21
0.179157
  0
LINE
  8
0
 10
23.5585
 20
0.179157
 11
23.5506
 21
0.433545
  0
LINE
  8
0
 10
23.5506
 20
0.433545
 11
23.5459
 21
0.763165
  0
LINE
  8
0
 10
23.5459
 20
0.763165
 11
23.5443
 21
1.16801
  0
LINE
  8
0
 10
23.5443
 20
1.16801
 11
23.5443
 21
7.77228
  0
LINE
  8
0
 10
23.5443
 20
7.77228
 11
22.7967
 21
7.77228
  0
LINE
  8
0
 10
22.7967
 20
7.77228
 11
22.7967
 21
5.43471
  0
LINE
  8
0
 10
22.7967
 20
5.43471
 11
22.8053
 21
4.80507
  0
LINE
  8
0
 10
22.8053
 20
4.80507
 11
22.7967
 21
4.80507
  0
LINE
  8
0
 10
22.7967
 20
4.80507
 11
22.6846
 21
5.04486
  0
LINE
  8
0
 10
22.6846
 20
5.04486
 11
22.5559
 21
5.24984
  0
LINE
  8
0
 10
22.5559
 20
5.24984
 11
22.4106
 21
5.42002
  0
LINE
  8
0
 10
22.4106
 20
5.42002
 11
22.2487
 21
5.55539
  0
LINE
  8
0
 10
22.2487
 20
5.55539
 11
22.0678
 21
5.65895
  0
LINE
  8
0
 10
22.0678
 20
5.65895
 11
21.8657
 21
5.73291
  0
LINE
  8
0
 10
21.8657
 20
5.73291
 11
21.6422
 21
5.77729
  0
LINE
  8
0
 10
21.6422
 20
5.77729
 11
21.3976
 21
5.79208
  0
LINE
  8
0
 10
21.3976
 20
5.79208
 11
20.6745
 21
5.60634
  0
LINE
  8
0
 10
20.6745
 20
5.60634
 11
20.1581
 21
5.04912
  0
LINE
  8
0
 10
20.1581
 20
5.04912
 11
19.8482
 21
4.12042
  0
LINE
  8
0
 10
19.8482
 20
4.12042
 11
19.7449
 21
2.82024
  0
LINE
  8
0
 10
19.7449
 20
2.82024
 11
19.7699
 21
2.13161
  0
LINE
  8
0
 10
19.7699
 20
2.13161
 11
19.845
 21
1.5362
  0
LINE
  8
0
 10
19.845
 20
1.5362
 11
19.9702
 21
1.03399
  0
LINE
  8
0
 10
19.9702
 20
1.03399
 11
20.1454
 21
0.625
  0
LINE
  8
0
 10
20.1454
 20
0.625
 11
20.374
 21
0.308245
  0
LINE
  8
0
 10
20.374
 20
0.308245
 11
20.6589
 21
0.0819831
  0
LINE
  8
0
 10
20.6589
 20
0.0819831
 11
21.0001
 21
-0.0537505
  0
LINE
  8
0
 10
21.0001
 20
-0.0537505
 11
21.3976
 21
-0.0990029
  0
LINE
  8
0
 10
21.3976
 20
-0.0990029
 11
21.6405
 21
-0.084261
  0
LINE
  8
0
 10
21.3279
 20
0.662557
 11
21.1061
 21
0.75901
  0
LINE
  8
0
 10
21.1061
 20
0.75901
 11
20.9232
 21
0.919754
  0
LINE
  8
0
 10
20.9232
 20
0.919754
 11
20.7791
 21
1.1448
  0
LINE
  8
0
 10
20.7791
 20
1.1448
 11
20.6701
 21
1.44468
  0
LINE
  8
0
 10
20.6701
 20
1.44468
 11
20.5922
 21
1.82917
  0
LINE
  8
0
 10
20.5922
 20
1.82917
 11
20.5455
 21
2.29825
  0
LINE
  8
0
 10
20.5455
 20
2.29825
 11
20.5299
 21
2.85195
  0
LINE
  8
0
 10
20.5299
 20
2.85195
 11
20.5456
 21
3.40404
  0
LINE
  8
0
 10
20.5456
 20
3.40404
 11
20.5927
 21
3.87377
  0
LINE
  8
0
 10
20.5927
 20
3.87377
 11
20.6711
 21
4.2611
  0
LINE
  8
0
 10
20.6711
 20
4.2611
 11
20.781
 21
4.56607
  0
LINE
  8
0
 10
20.781
 20
4.56607
 11
20.9261
 21
4.79719
  0
LINE
  8
0
 10
20.9261
 20
4.79719
 11
21.1105
 21
4.96229
  0
LINE
  8
0
 10
21.1105
 20
4.96229
 11
21.3342
 21
5.06135
  0
LINE
  8
0
 10
21.3342
 20
5.06135
 11
21.5972
 21
5.09438
  0
LINE
  8
0
 10
21.5972
 20
5.09438
 11
21.8891
 21
5.06154
  0
LINE
  8
0
 10
21.8891
 20
5.06154
 11
22.1386
 21
4.96307
  0
LINE
  8
0
 10
22.1386
 20
4.96307
 11
22.3456
 21
4.79894
  0
LINE
  8
0
 10
22.3456
 20
4.79894
 11
22.5101
 21
4.56916
  0
LINE
  8
0
 10
22.5101
 20
4.56916
 11
22.6355
 21
4.26879
  0
LINE
  8
0
 10
22.6355
 20
4.26879
 11
22.7251
 21
3.89291
  0
LINE
  8
0
 10
22.7251
 20
3.89291
 11
22.7788
 21
3.44151
  0
LINE
  8
0
 10
22.7788
 20
3.44151
 11
22.7967
 21
2.9146
  0
LINE
  8
0
 10
22.7967
 20
2.9146
 11
22.7788
 21
2.36744
  0
LINE
  8
0
 10
22.7788
 20
2.36744
 11
22.7251
 21
1.89705
  0
LINE
  8
0
 10
22.7251
 20
1.89705
 11
22.6355
 21
1.50342
  0
LINE
  8
0
 10
22.6355
 20
1.50342
 11
22.5101
 21
1.18657
  0
LINE
  8
0
 10
22.5101
 20
1.18657
 11
22.3451
 21
0.943254
  0
LINE
  8
0
 10
22.3451
 20
0.943254
 11
22.1365
 21
0.769444
  0
LINE
  8
0
 10
22.1365
 20
0.769444
 11
21.8843
 21
0.665165
  0
LINE
  8
0
 10
21.8843
 20
0.665165
 11
21.5886
 21
0.630406
  0
LINE
  8
0
 10
21.5886
 20
0.630406
 11
21.3279
 21
0.662557
  0
LINE
  8
0
 10
45.1769
 20
7.77228
 11
44.4299
 21
7.77228
  0
LINE
  8
0
 10
44.4299
 20
7.77228
 11
44.4299
 21
0
  0
LINE
  8
0
 10
44.4299
 20
0
 11
45.1769
 21
0
  0
LINE
  8
0
 10
45.1769
 20
0
 11
45.1769
 21
7.77228
  0
LINE
  8
0
 10
11.9328
 20
7.77228
 11
11.1852
 21
7.77228
  0
LINE
  8
0
 10
11.1852
 20
7.77228
 11
11.1852
 21
6.87036
  0
LINE
  8
0
 10
11.1852
 20
6.87036
 11
11.9328
 21
6.87036
  0
LINE
  8
0
 10
11.9328
 20
6.87036
 11
11.9328
 21
7.77228
  0
LINE
  8
0
 10
3.70334
 20
-0.0676779
 11
4.09595
 21
0.0262969
  0
LINE
  8
0
 10
4.09595
 20
0.0262969
 11
4.46231
 21
0.182933
  0
LINE
  8
0
 10
4.46231
 20
0.182933
 11
4.80241
 21
0.40222
  0
LINE
  8
0
 10
4.80241
 20
0.40222
 11
5.11111
 21
0.681949
  0
LINE
  8
0
 10
5.11111
 20
0.681949
 11
5.3832
 21
1.0191
  0
LINE
  8
0
 10
5.3832
 20
1.0191
 11
5.61872
 21
1.41369
  0
LINE
  8
0
 10
5.61872
 20
1.41369
 11
5.81764
 21
1.86571
  0
LINE
  8
0
 10
5.81764
 20
1.86571
 11
5.16981
 21
2.27722
  0
LINE
  8
0
 10
5.16981
 20
2.27722
 11
4.82239
 21
1.59803
  0
LINE
  8
0
 10
4.82239
 20
1.59803
 11
4.39859
 21
1.11289
  0
LINE
  8
0
 10
4.39859
 20
1.11289
 11
3.89841
 21
0.821802
  0
LINE
  8
0
 10
3.89841
 20
0.821802
 11
3.32183
 21
0.724782
  0
LINE
  8
0
 10
3.32183
 20
0.724782
 11
2.86715
 21
0.776561
  0
LINE
  8
0
 10
2.86715
 20
0.776561
 11
2.46198
 21
0.931888
  0
LINE
  8
0
 10
2.46198
 20
0.931888
 11
2.10633
 21
1.19077
  0
LINE
  8
0
 10
2.10633
 20
1.19077
 11
1.80021
 21
1.55322
  0
LINE
  8
0
 10
1.80021
 20
1.55322
 11
1.55403
 21
2.00084
  0
LINE
  8
0
 10
1.55403
 20
2.00084
 11
1.37818
 21
2.51527
  0
LINE
  8
0
 10
1.37818
 20
2.51527
 11
1.27266
 21
3.09652
  0
LINE
  8
0
 10
1.27266
 20
3.09652
 11
1.2375
 21
3.74458
  0
LINE
  8
0
 10
1.2375
 20
3.74458
 11
1.27121
 21
4.3971
  0
LINE
  8
0
 10
1.27121
 20
4.3971
 11
1.37236
 21
4.97622
  0
LINE
  8
0
 10
1.37236
 20
4.97622
 11
1.54094
 21
5.48195
  0
LINE
  8
0
 10
1.54094
 20
5.48195
 11
1.77695
 21
5.9143
  0
LINE
  8
0
 10
1.77695
 20
5.9143
 11
2.07396
 21
6.26084
  0
LINE
  8
0
 10
2.07396
 20
6.26084
 11
2.42493
 21
6.50835
  0
LINE
  8
0
 10
2.42493
 20
6.50835
 11
2.82987
 21
6.65687
  0
LINE
  8
0
 10
2.82987
 20
6.65687
 11
3.28876
 21
6.70638
  0
LINE
  8
0
 10
3.28876
 20
6.70638
 11
3.5875
 21
6.68535
  0
LINE
  8
0
 10
3.5875
 20
6.68535
 11
3.86527
 21
6.62226
  0
LINE
  8
0
 10
3.86527
 20
6.62226
 11
4.12206
 21
6.51711
  0
LINE
  8
0
 10
4.12206
 20
6.51711
 11
4.35787
 21
6.36989
  0
LINE
  8
0
 10
4.35787
 20
6.36989
 11
4.56775
 21
6.18285
  0
LINE
  8
0
 10
4.56775
 20
6.18285
 11
4.7467
 21
5.9582
  0
LINE
  8
0
 10
4.7467
 20
5.9582
 11
4.89473
 21
5.69592
  0
LINE
  8
0
 10
4.89473
 20
5.69592
 11
5.01183
 21
5.39605
  0
LINE
  8
0
 10
5.01183
 20
5.39605
 11
5.76314
 21
5.70854
  0
LINE
  8
0
 10
5.76314
 20
5.70854
 11
5.59511
 21
6.13107
  0
LINE
  8
0
 10
5.59511
 20
6.13107
 11
5.3855
 21
6.4983
  0
LINE
  8
0
 10
5.3855
 20
6.4983
 11
5.13433
 21
6.81023
  0
LINE
  8
0
 10
5.13433
 20
6.81023
 11
4.84161
 21
7.06683
  0
LINE
  8
0
 10
4.84161
 20
7.06683
 11
4.50889
 21
7.26718
  0
LINE
  8
0
 10
4.50889
 20
7.26718
 11
4.13774
 21
7.41027
  0
LINE
  8
0
 10
4.13774
 20
7.41027
 11
3.72818
 21
7.49614
  0
LINE
  8
0
 10
3.72818
 20
7.49614
 11
3.28019
 21
7.52476
  0
LINE
  8
0
 10
3.28019
 20
7.52476
 11
2.6479
 21
7.46196
  0
LINE
  8
0
 10
2.6479
 20
7.46196
 11
2.08831
 21
7.27356
  0
LINE
  8
0
 10
2.08831
 20
7.27356
 11
1.60144
 21
6.95956
  0
LINE
  8
0
 10
1.60144
 20
6.95956
 11
1.18728
 21
6.51996
  0
LINE
  8
0
 10
1.18728
 20
6.51996
 11
0.856711
 21
5.96999
  0
LINE
  8
0
 10
0.856711
 20
5.96999
 11
0.620579
 21
5.32411
  0
LINE
  8
0
 10
0.620579
 20
5.32411
 11
0.478907
 21
4.58231
  0
LINE
  8
0
 10
0.478907
 20
4.58231
 11
0.431677
 21
3.74458
  0
LINE
  8
0
 10
0.431677
 20
3.74458
 11
0.452802
 21
3.17277
  0
LINE
  8
0
 10
0.452802
 20
3.17277
 11
0.516177
 21
2.64077
  0
LINE
  8
0
 10
0.516177
 20
2.64077
 11
0.621803
 21
2.14863
  0
LINE
  8
0
 10
0.621803
 20
2.14863
 11
0.769679
 21
1.69632
  0
LINE
  8
0
 10
0.769679
 20
1.69632
 11
0.958198
 21
1.28887
  0
LINE
  8
0
 10
0.958198
 20
1.28887
 11
1.18514
 21
0.931309
  0
LINE
  8
0
 10
1.18514
 20
0.931309
 11
1.4505
 21
0.623643
  0
LINE
  8
0
 10
1.4505
 20
0.623643
 11
1.75429
 21
0.365867
  0
LINE
  8
0
 10
1.75429
 20
0.365867
 11
2.09218
 21
0.162479
  0
LINE
  8
0
 10
2.09218
 20
0.162479
 11
2.45984
 21
0.0172087
  0
LINE
  8
0
 10
2.45984
 20
0.0172087
 11
2.85727
 21
-0.0699441
  0
LINE
  8
0
 10
2.85727
 20
-0.0699441
 11
3.28448
 21
-0.0990029
  0
LINE
  8
0
 10
3.28448
 20
-0.0990029
 11
3.70334
 21
-0.0676779
  0
LINE
  8
0
 10
32.4233
 20
2.8272
 11
33.1875
 21
3.55971
  0
LINE
  8
0
 10
33.1875
 20
3.55971
 11
35.5253
 21
0
  0
LINE
  8
0
 10
35.5253
 20
0
 11
36.5093
 21
0
  0
LINE
  8
0
 10
36.5093
 20
0
 11
33.6859
 21
4.17234
  0
LINE
  8
0
 10
33.6859
 20
4.17234
 11
36.1774
 21
7.37625
  0
LINE
  8
0
 10
36.1774
 20
7.37625
 11
35.243
 21
7.37625
  0
LINE
  8
0
 10
35.243
 20
7.37625
 11
32.4233
 21
3.68039
  0
LINE
  8
0
 10
32.4233
 20
3.68039
 11
32.4233
 21
7.37625
  0
LINE
  8
0
 10
32.4233
 20
7.37625
 11
31.6303
 21
7.37625
  0
LINE
  8
0
 10
31.6303
 20
7.37625
 11
31.6303
 21
0
  0
LINE
  8
0
 10
31.6303
 20
0
 11
32.4233
 21
0
  0
LINE
  8
0
 10
32.4233
 20
0
 11
32.4233
 21
2.8272
  0
LINE
  8
0
 10
47.6828
 20
-0.0821365
 11
47.9241
 21
-0.0315138
  0
LINE
  8
0
 10
47.9241
 20
-0.0315138
 11
48.1448
 21
0.0528299
  0
LINE
  8
0
 10
48.1448
 20
0.0528299
 11
48.3449
 21
0.170942
  0
LINE
  8
0
 10
48.3449
 20
0.170942
 11
48.5289
 21
0.330092
  0
LINE
  8
0
 10
48.5289
 20
0.330092
 11
48.7013
 21
0.536809
  0
LINE
  8
0
 10
48.7013
 20
0.536809
 11
48.862
 21
0.791102
  0
LINE
  8
0
 10
48.862
 20
0.791102
 11
49.0111
 21
1.09297
  0
LINE
  8
0
 10
49.0111
 20
1.09297
 11
49.0362
 21
1.09297
  0
LINE
  8
0
 10
49.0362
 20
1.09297
 11
49.059
 21
0.817789
  0
LINE
  8
0
 10
49.059
 20
0.817789
 11
49.1022
 21
0.581683
  0
LINE
  8
0
 10
49.1022
 20
0.581683
 11
49.1658
 21
0.384622
  0
LINE
  8
0
 10
49.1658
 20
0.384622
 11
49.2499
 21
0.22664
  0
LINE
  8
0
 10
49.2499
 20
0.22664
 11
49.3586
 21
0.105825
  0
LINE
  8
0
 10
49.3586
 20
0.105825
 11
49.4956
 21
0.019522
  0
LINE
  8
0
 10
49.4956
 20
0.019522
 11
49.6608
 21
-0.0322456
  0
LINE
  8
0
 10
49.6608
 20
-0.0322456
 11
49.8543
 21
-0.0495014
  0
LINE
  8
0
 10
49.8543
 20
-0.0495014
 11
50.001
 21
-0.0442255
  0
LINE
  8
0
 10
50.001
 20
-0.0442255
 11
50.1462
 21
-0.0284214
  0
LINE
  8
0
 10
50.1462
 20
-0.0284214
 11
50.2897
 21
-0.00207731
  0
LINE
  8
0
 10
50.2897
 20
-0.00207731
 11
50.4317
 21
0.0348068
  0
LINE
  8
0
 10
50.4317
 20
0.0348068
 11
50.4317
 21
0.621896
  0
LINE
  8
0
 10
50.4317
 20
0.621896
 11
50.3649
 21
0.605997
  0
LINE
  8
0
 10
50.3649
 20
0.605997
 11
50.3019
 21
0.594631
  0
LINE
  8
0
 10
50.3019
 20
0.594631
 11
50.2425
 21
0.587821
  0
LINE
  8
0
 10
50.2425
 20
0.587821
 11
50.1867
 21
0.585543
  0
LINE
  8
0
 10
50.1867
 20
0.585543
 11
50.0741
 21
0.598845
  0
LINE
  8
0
 10
50.0741
 20
0.598845
 11
49.9812
 21
0.638727
  0
LINE
  8
0
 10
49.9812
 20
0.638727
 11
49.9079
 21
0.705201
  0
LINE
  8
0
 10
49.9079
 20
0.705201
 11
49.8543
 21
0.798267
  0
LINE
  8
0
 10
49.8543
 20
0.798267
 11
49.8162
 21
0.91763
  0
LINE
  8
0
 10
49.8162
 20
0.91763
 11
49.789
 21
1.06299
  0
LINE
  8
0
 10
49.789
 20
1.06299
 11
49.7727
 21
1.23438
  0
LINE
  8
0
 10
49.7727
 20
1.23438
 11
49.7673
 21
1.43178
  0
LINE
  8
0
 10
49.7673
 20
1.43178
 11
49.7673
 21
3.87995
  0
LINE
  8
0
 10
49.7673
 20
3.87995
 11
49.7406
 21
4.31743
  0
LINE
  8
0
 10
49.7406
 20
4.31743
 11
49.6603
 21
4.70008
  0
LINE
  8
0
 10
49.6603
 20
4.70008
 11
49.5265
 21
5.0279
  0
LINE
  8
0
 10
49.5265
 20
5.0279
 11
49.3393
 21
5.3009
  0
LINE
  8
0
 10
49.3393
 20
5.3009
 11
49.0993
 21
5.51579
  0
LINE
  8
0
 10
49.0993
 20
5.51579
 11
48.8069
 21
5.66928
  0
LINE
  8
0
 10
48.8069
 20
5.66928
 11
48.4619
 21
5.76138
  0
LINE
  8
0
 10
48.4619
 20
5.76138
 11
48.0644
 21
5.79208
  0
LINE
  8
0
 10
48.0644
 20
5.79208
 11
47.3477
 21
5.69558
  0
LINE
  8
0
 10
47.3477
 20
5.69558
 11
46.8084
 21
5.4061
  0
LINE
  8
0
 10
46.8084
 20
5.4061
 11
46.4467
 21
4.92362
  0
LINE
  8
0
 10
46.4467
 20
4.92362
 11
46.2624
 21
4.24814
  0
LINE
  8
0
 10
46.2624
 20
4.24814
 11
47.0431
 21
4.15842
  0
LINE
  8
0
 10
47.0431
 20
4.15842
 11
47.0775
 21
4.38153
  0
LINE
  8
0
 10
47.0775
 20
4.38153
 11
47.1346
 21
4.57205
  0
LINE
  8
0
 10
47.1346
 20
4.57205
 11
47.2146
 21
4.73
  0
LINE
  8
0
 10
47.2146
 20
4.73
 11
47.3174
 21
4.85536
  0
LINE
  8
0
 10
47.3174
 20
4.85536
 11
47.4487
 21
4.95078
  0
LINE
  8
0
 10
47.4487
 20
4.95078
 11
47.6142
 21
5.01896
  0
LINE
  8
0
 10
47.6142
 20
5.01896
 11
47.814
 21
5.05985
  0
LINE
  8
0
 10
47.814
 20
5.05985
 11
48.0479
 21
5.07348
  0
LINE
  8
0
 10
48.0479
 20
5.07348
 11
48.2805
 21
5.05468
  0
LINE
  8
0
 10
48.2805
 20
5.05468
 11
48.4799
 21
4.99826
  0
LINE
  8
0
 10
48.4799
 20
4.99826
 11
48.6461
 21
4.90423
  0
LINE
  8
0
 10
48.6461
 20
4.90423
 11
48.779
 21
4.77259
  0
LINE
  8
0
 10
48.779
 20
4.77259
 11
48.8808
 21
4.59777
  0
LINE
  8
0
 10
48.8808
 20
4.59777
 11
48.9535
 21
4.37345
  0
LINE
  8
0
 10
48.9535
 20
4.37345
 11
48.9972
 21
4.09963
  0
LINE
  8
0
 10
48.9972
 20
4.09963
 11
49.0117
 21
3.7763
  0
LINE
  8
0
 10
49.0117
 20
3.7763
 11
49.0117
 21
3.46535
  0
LINE
  8
0
 10
49.0117
 20
3.46535
 11
48.0026
 21
3.44446
  0
LINE
  8
0
 10
48.0026
 20
3.44446
 11
47.5271
 21
3.40109
  0
LINE
  8
0
 10
47.5271
 20
3.40109
 11
47.1218
 21
3.30272
  0
LINE
  8
0
 10
47.1218
 20
3.30272
 11
46.7868
 21
3.14931
  0
LINE
  8
0
 10
46.7868
 20
3.14931
 11
46.522
 21
2.9409
  0
LINE
  8
0
 10
46.522
 20
2.9409
 11
46.3214
 21
2.67945
  0
LINE
  8
0
 10
46.3214
 20
2.67945
 11
46.178
 21
2.36696
  0
LINE
  8
0
 10
46.178
 20
2.36696
 11
46.0921
 21
2.0034
  0
LINE
  8
0
 10
46.0921
 20
2.0034
 11
46.0634
 21
1.58879
  0
LINE
  8
0
 10
46.0634
 20
1.58879
 11
46.0847
 21
1.21679
  0
LINE
  8
0
 10
46.0847
 20
1.21679
 11
46.1485
 21
0.886635
  0
LINE
  8
0
 10
46.1485
 20
0.886635
 11
46.2549
 21
0.598361
  0
LINE
  8
0
 10
46.2549
 20
0.598361
 11
46.4038
 21
0.351939
  0
LINE
  8
0
 10
46.4038
 20
0.351939
 11
46.5951
 21
0.154654
  0
LINE
  8
0
 10
46.5951
 20
0.154654
 11
46.8283
 21
0.0137268
  0
LINE
  8
0
 10
46.8283
 20
0.0137268
 11
47.1036
 21
-0.0708175
  0
LINE
  8
0
 10
47.1036
 20
-0.0708175
 11
47.4209
 21
-0.0990029
  0
LINE
  8
0
 10
47.4209
 20
-0.0990029
 11
47.6828
 21
-0.0821365
  0
LINE
  8
0
 10
47.4195
 20
0.624469
 11
47.2683
 21
0.671598
  0
LINE
  8
0
 10
47.2683
 20
0.671598
 11
47.1381
 21
0.750158
  0
LINE
  8
0
 10
47.1381
 20
0.750158
 11
47.029
 21
0.86015
  0
LINE
  8
0
 10
47.029
 20
0.86015
 11
46.9428
 21
0.998987
  0
LINE
  8
0
 10
46.9428
 20
0.998987
 11
46.8811
 21
1.16413
  0
LINE
  8
0
 10
46.8811
 20
1.16413
 11
46.8442
 21
1.35558
  0
LINE
  8
0
 10
46.8442
 20
1.35558
 11
46.8318
 21
1.57333
  0
LINE
  8
0
 10
46.8318
 20
1.57333
 11
46.8409
 21
1.77545
  0
LINE
  8
0
 10
46.8409
 20
1.77545
 11
46.8681
 21
1.95718
  0
LINE
  8
0
 10
46.8681
 20
1.95718
 11
46.9135
 21
2.11851
  0
LINE
  8
0
 10
46.9135
 20
2.11851
 11
46.977
 21
2.25943
  0
LINE
  8
0
 10
46.977
 20
2.25943
 11
47.0577
 21
2.38199
  0
LINE
  8
0
 10
47.0577
 20
2.38199
 11
47.1542
 21
2.48743
  0
LINE
  8
0
 10
47.1542
 20
2.48743
 11
47.2665
 21
2.57575
  0
LINE
  8
0
 10
47.2665
 20
2.57575
 11
47.3946
 21
2.64697
  0
LINE
  8
0
 10
47.3946
 20
2.64697
 11
47.5465
 21
2.70281
  0
LINE
  8
0
 10
47.5465
 20
2.70281
 11
47.7303
 21
2.74424
  0
LINE
  8
0
 10
47.7303
 20
2.74424
 11
47.946
 21
2.77127
  0
LINE
  8
0
 10
47.946
 20
2.77127
 11
48.1936
 21
2.78388
  0
LINE
  8
0
 10
48.1936
 20
2.78388
 11
49.0117
 21
2.80476
  0
LINE
  8
0
 10
49.0117
 20
2.80476
 11
49.0117
 21
2.33834
  0
LINE
  8
0
 10
49.0117
 20
2.33834
 11
49.0002
 21
2.12242
  0
LINE
  8
0
 10
49.0002
 20
2.12242
 11
48.9655
 21
1.90942
  0
LINE
  8
0
 10
48.9655
 20
1.90942
 11
48.9077
 21
1.69931
  0
LINE
  8
0
 10
48.9077
 20
1.69931
 11
48.8268
 21
1.4921
  0
LINE
  8
0
 10
48.8268
 20
1.4921
 11
48.7259
 21
1.29733
  0
LINE
  8
0
 10
48.7259
 20
1.29733
 11
48.6082
 21
1.12449
  0
LINE
  8
0
 10
48.6082
 20
1.12449
 11
48.4736
 21
0.973611
  0
LINE
  8
0
 10
48.4736
 20
0.973611
 11
48.3222
 21
0.844676
  0
LINE
  8
0
 10
48.3222
 20
0.844676
 11
48.1567
 21
0.741459
  0
LINE
  8
0
 10
48.1567
 20
0.741459
 11
47.9798
 21
0.667727
  0
LINE
  8
0
 10
47.9798
 20
0.667727
 11
47.7915
 21
0.623501
  0
LINE
  8
0
 10
47.7915
 20
0.623501
 11
47.5917
 21
0.608747
  0
LINE
  8
0
 10
47.5917
 20
0.608747
 11
47.4195
 21
0.624469
  0
LINE
  8
0
 10
42.4285
 20
2.96566
 11
42.4438
 21
3.41124
  0
LINE
  8
0
 10
42.4438
 20
3.41124
 11
42.4897
 21
3.80202
  0
LINE
  8
0
 10
42.4897
 20
3.80202
 11
42.5663
 21
4.13796
  0
LINE
  8
0
 10
42.5663
 20
4.13796
 11
42.6734
 21
4.4191
  0
LINE
  8
0
 10
42.6734
 20
4.4191
 11
42.8096
 21
4.6411
  0
LINE
  8
0
 10
42.8096
 20
4.6411
 11
42.9733
 21
4.79966
  0
LINE
  8
0
 10
42.9733
 20
4.79966
 11
43.1645
 21
4.8948
  0
LINE
  8
0
 10
43.1645
 20
4.8948
 11
43.3831
 21
4.92652
  0
LINE
  8
0
 10
43.3831
 20
4.92652
 11
43.5015
 21
4.92323
  0
LINE
  8
0
 10
43.5015
 20
4.92323
 11
43.6074
 21
4.91337
  0
LINE
  8
0
 10
43.6074
 20
4.91337
 11
43.7008
 21
4.89694
  0
LINE
  8
0
 10
43.7008
 20
4.89694
 11
43.7817
 21
4.87392
  0
LINE
  8
0
 10
43.7817
 20
4.87392
 11
43.7817
 21
5.73949
  0
LINE
  8
0
 10
43.7817
 20
5.73949
 11
43.7051
 21
5.76249
  0
LINE
  8
0
 10
43.7051
 20
5.76249
 11
43.6291
 21
5.77893
  0
LINE
  8
0
 10
43.6291
 20
5.77893
 11
43.5536
 21
5.7888
  0
LINE
  8
0
 10
43.5536
 20
5.7888
 11
43.4786
 21
5.79208
  0
LINE
  8
0
 10
43.4786
 20
5.79208
 11
43.2787
 21
5.77536
  0
LINE
  8
0
 10
43.2787
 20
5.77536
 11
43.1027
 21
5.72517
  0
LINE
  8
0
 10
43.1027
 20
5.72517
 11
42.9505
 21
5.64154
  0
LINE
  8
0
 10
42.9505
 20
5.64154
 11
42.8222
 21
5.52445
  0
LINE
  8
0
 10
42.8222
 20
5.52445
 11
42.7095
 21
5.36182
  0
LINE
  8
0
 10
42.7095
 20
5.36182
 11
42.6035
 21
5.14155
  0
LINE
  8
0
 10
42.6035
 20
5.14155
 11
42.5041
 21
4.86366
  0
LINE
  8
0
 10
42.5041
 20
4.86366
 11
42.4113
 21
4.52815
  0
LINE
  8
0
 10
42.4113
 20
4.52815
 11
42.3948
 21
4.52815
  0
LINE
  8
0
 10
42.3948
 20
4.52815
 11
42.3927
 21
4.67406
  0
LINE
  8
0
 10
42.3927
 20
4.67406
 11
42.3865
 21
4.91685
  0
LINE
  8
0
 10
42.3865
 20
4.91685
 11
42.3617
 21
5.69307
  0
LINE
  8
0
 10
42.3617
 20
5.69307
 11
41.6557
 21
5.69307
  0
LINE
  8
0
 10
41.6557
 20
5.69307
 11
41.6667
 21
5.33783
  0
LINE
  8
0
 10
41.6667
 20
5.33783
 11
41.6746
 21
4.99845
  0
LINE
  8
0
 10
41.6746
 20
4.99845
 11
41.6793
 21
4.67494
  0
LINE
  8
0
 10
41.6793
 20
4.67494
 11
41.6808
 21
4.36727
  0
LINE
  8
0
 10
41.6808
 20
4.36727
 11
41.6808
 21
0
  0
LINE
  8
0
 10
41.6808
 20
0
 11
42.4285
 21
0
  0
LINE
  8
0
 10
42.4285
 20
0
 11
42.4285
 21
2.96566
  0
LINE
  8
0
 10
14.4423
 20
-0.0821365
 11
14.6836
 21
-0.0315138
  0
LINE
  8
0
 10
14.6836
 20
-0.0315138
 11
14.9043
 21
0.0528299
  0
LINE
  8
0
 10
14.9043
 20
0.0528299
 11
15.1044
 21
0.170942
  0
LINE
  8
0
 10
15.1044
 20
0.170942
 11
15.2884
 21
0.330092
  0
LINE
  8
0
 10
15.2884
 20
0.330092
 11
15.4608
 21
0.536809
  0
LINE
  8
0
 10
15.4608
 20
0.536809
 11
15.6215
 21
0.791102
  0
LINE
  8
0
 10
15.6215
 20
0.791102
 11
15.7706
 21
1.09297
  0
LINE
  8
0
 10
15.7706
 20
1.09297
 11
15.7957
 21
1.09297
  0
LINE
  8
0
 10
15.7957
 20
1.09297
 11
15.8185
 21
0.817789
  0
LINE
  8
0
 10
15.8185
 20
0.817789
 11
15.8617
 21
0.581683
  0
LINE
  8
0
 10
15.8617
 20
0.581683
 11
15.9254
 21
0.384622
  0
LINE
  8
0
 10
15.9254
 20
0.384622
 11
16.0094
 21
0.22664
  0
LINE
  8
0
 10
16.0094
 20
0.22664
 11
16.1182
 21
0.105825
  0
LINE
  8
0
 10
16.1182
 20
0.105825
 11
16.2551
 21
0.019522
  0
LINE
  8
0
 10
16.2551
 20
0.019522
 11
16.4203
 21
-0.0322456
  0
LINE
  8
0
 10
16.4203
 20
-0.0322456
 11
16.6138
 21
-0.0495014
  0
LINE
  8
0
 10
16.6138
 20
-0.0495014
 11
16.7606
 21
-0.0442255
  0
LINE
  8
0
 10
16.7606
 20
-0.0442255
 11
16.9057
 21
-0.0284214
  0
LINE
  8
0
 10
16.9057
 20
-0.0284214
 11
17.0493
 21
-0.00207731
  0
LINE
  8
0
 10
17.0493
 20
-0.00207731
 11
17.1912
 21
0.0348068
  0
LINE
  8
0
 10
17.1912
 20
0.0348068
 11
17.1912
 21
0.621896
  0
LINE
  8
0
 10
17.1912
 20
0.621896
 11
17.1245
 21
0.605997
  0
LINE
  8
0
 10
17.1245
 20
0.605997
 11
17.0614
 21
0.594631
  0
LINE
  8
0
 10
17.0614
 20
0.594631
 11
17.002
 21
0.587821
  0
LINE
  8
0
 10
17.002
 20
0.587821
 11
16.9463
 21
0.585543
  0
LINE
  8
0
 10
16.9463
 20
0.585543
 11
16.8337
 21
0.598845
  0
LINE
  8
0
 10
16.8337
 20
0.598845
 11
16.7407
 21
0.638727
  0
LINE
  8
0
 10
16.7407
 20
0.638727
 11
16.6674
 21
0.705201
  0
LINE
  8
0
 10
16.6674
 20
0.705201
 11
16.6138
 21
0.798267
  0
LINE
  8
0
 10
16.6138
 20
0.798267
 11
16.5758
 21
0.91763
  0
LINE
  8
0
 10
16.5758
 20
0.91763
 11
16.5486
 21
1.06299
  0
LINE
  8
0
 10
16.5486
 20
1.06299
 11
16.5323
 21
1.23438
  0
LINE
  8
0
 10
16.5323
 20
1.23438
 11
16.5268
 21
1.43178
  0
LINE
  8
0
 10
16.5268
 20
1.43178
 11
16.5268
 21
3.87995
  0
LINE
  8
0
 10
16.5268
 20
3.87995
 11
16.5001
 21
4.31743
  0
LINE
  8
0
 10
16.5001
 20
4.31743
 11
16.4198
 21
4.70008
  0
LINE
  8
0
 10
16.4198
 20
4.70008
 11
16.2861
 21
5.0279
  0
LINE
  8
0
 10
16.2861
 20
5.0279
 11
16.0988
 21
5.3009
  0
LINE
  8
0
 10
16.0988
 20
5.3009
 11
15.8589
 21
5.51579
  0
LINE
  8
0
 10
15.8589
 20
5.51579
 11
15.5664
 21
5.66928
  0
LINE
  8
0
 10
15.5664
 20
5.66928
 11
15.2215
 21
5.76138
  0
LINE
  8
0
 10
15.2215
 20
5.76138
 11
14.824
 21
5.79208
  0
LINE
  8
0
 10
14.824
 20
5.79208
 11
14.1072
 21
5.69558
  0
LINE
  8
0
 10
14.1072
 20
5.69558
 11
13.568
 21
5.4061
  0
LINE
  8
0
 10
13.568
 20
5.4061
 11
13.2062
 21
4.92362
  0
LINE
  8
0
 10
13.2062
 20
4.92362
 11
13.0219
 21
4.24814
  0
LINE
  8
0
 10
13.0219
 20
4.24814
 11
13.8026
 21
4.15842
  0
LINE
  8
0
 10
13.8026
 20
4.15842
 11
13.837
 21
4.38153
  0
LINE
  8
0
 10
13.837
 20
4.38153
 11
13.8942
 21
4.57205
  0
LINE
  8
0
 10
13.8942
 20
4.57205
 11
13.9742
 21
4.73
  0
LINE
  8
0
 10
13.9742
 20
4.73
 11
14.0769
 21
4.85536
  0
LINE
  8
0
 10
14.0769
 20
4.85536
 11
14.2083
 21
4.95078
  0
LINE
  8
0
 10
14.2083
 20
4.95078
 11
14.3738
 21
5.01896
  0
LINE
  8
0
 10
14.3738
 20
5.01896
 11
14.5735
 21
5.05985
  0
LINE
  8
0
 10
14.5735
 20
5.05985
 11
14.8075
 21
5.07348
  0
LINE
  8
0
 10
14.8075
 20
5.07348
 11
15.0401
 21
5.05468
  0
LINE
  8
0
 10
15.0401
 20
5.05468
 11
15.2394
 21
4.99826
  0
LINE
  8
0
 10
15.2394
 20
4.99826
 11
15.4056
 21
4.90423
  0
LINE
  8
0
 10
15.4056
 20
4.90423
 11
15.5386
 21
4.77259
  0
LINE
  8
0
 10
15.5386
 20
4.77259
 11
15.6404
 21
4.59777
  0
LINE
  8
0
 10
15.6404
 20
4.59777
 11
15.7131
 21
4.37345
  0
LINE
  8
0
 10
15.7131
 20
4.37345
 11
15.7567
 21
4.09963
  0
LINE
  8
0
 10
15.7567
 20
4.09963
 11
15.7712
 21
3.7763
  0
LINE
  8
0
 10
15.7712
 20
3.7763
 11
15.7712
 21
3.46535
  0
LINE
  8
0
 10
15.7712
 20
3.46535
 11
14.7621
 21
3.44446
  0
LINE
  8
0
 10
14.7621
 20
3.44446
 11
14.2866
 21
3.40109
  0
LINE
  8
0
 10
14.2866
 20
3.40109
 11
13.8813
 21
3.30272
  0
LINE
  8
0
 10
13.8813
 20
3.30272
 11
13.5463
 21
3.14931
  0
LINE
  8
0
 10
13.5463
 20
3.14931
 11
13.2815
 21
2.9409
  0
LINE
  8
0
 10
13.2815
 20
2.9409
 11
13.0809
 21
2.67945
  0
LINE
  8
0
 10
13.0809
 20
2.67945
 11
12.9376
 21
2.36696
  0
LINE
  8
0
 10
12.9376
 20
2.36696
 11
12.8516
 21
2.0034
  0
LINE
  8
0
 10
12.8516
 20
2.0034
 11
12.8229
 21
1.58879
  0
LINE
  8
0
 10
12.8229
 20
1.58879
 11
12.8442
 21
1.21679
  0
LINE
  8
0
 10
12.8442
 20
1.21679
 11
12.908
 21
0.886635
  0
LINE
  8
0
 10
12.908
 20
0.886635
 11
13.0144
 21
0.598361
  0
LINE
  8
0
 10
13.0144
 20
0.598361
 11
13.1634
 21
0.351939
  0
LINE
  8
0
 10
13.1634
 20
0.351939
 11
13.3546
 21
0.154654
  0
LINE
  8
0
 10
13.3546
 20
0.154654
 11
13.5879
 21
0.0137268
  0
LINE
  8
0
 10
13.5879
 20
0.0137268
 11
13.8631
 21
-0.0708175
  0
LINE
  8
0
 10
13.8631
 20
-0.0708175
 11
14.1804
 21
-0.0990029
  0
LINE
  8
0
 10
14.1804
 20
-0.0990029
 11
14.4423
 21
-0.0821365
  0
LINE
  8
0
 10
14.179
 20
0.624469
 11
14.0278
 21
0.671598
  0
LINE
  8
0
 10
14.0278
 20
0.671598
 11
13.8977
 21
0.750158
  0
LINE
  8
0
 10
13.8977
 20
0.750158
 11
13.7886
 21
0.86015
  0
LINE
  8
0
 10
13.7886
 20
0.86015
 11
13.7023
 21
0.998987
  0
LINE
  8
0
 10
13.7023
 20
0.998987
 11
13.6407
 21
1.16413
  0
LINE
  8
0
 10
13.6407
 20
1.16413
 11
13.6037
 21
1.35558
  0
LINE
  8
0
 10
13.6037
 20
1.35558
 11
13.5914
 21
1.57333
  0
LINE
  8
0
 10
13.5914
 20
1.57333
 11
13.6005
 21
1.77545
  0
LINE
  8
0
 10
13.6005
 20
1.77545
 11
13.6277
 21
1.95718
  0
LINE
  8
0
 10
13.6277
 20
1.95718
 11
13.673
 21
2.11851
  0
LINE
  8
0
 10
13.673
 20
2.11851
 11
13.7365
 21
2.25943
  0
LINE
  8
0
 10
13.7365
 20
2.25943
 11
13.8173
 21
2.38199
  0
LINE
  8
0
 10
13.8173
 20
2.38199
 11
13.9138
 21
2.48743
  0
LINE
  8
0
 10
13.9138
 20
2.48743
 11
14.0261
 21
2.57575
  0
LINE
  8
0
 10
14.0261
 20
2.57575
 11
14.1541
 21
2.64697
  0
LINE
  8
0
 10
14.1541
 20
2.64697
 11
14.306
 21
2.70281
  0
LINE
  8
0
 10
14.306
 20
2.70281
 11
14.4898
 21
2.74424
  0
LINE
  8
0
 10
14.4898
 20
2.74424
 11
14.7055
 21
2.77127
  0
LINE
  8
0
 10
14.7055
 20
2.77127
 11
14.9532
 21
2.78388
  0
LINE
  8
0
 10
14.9532
 20
2.78388
 11
15.7712
 21
2.80476
  0
LINE
  8
0
 10
15.7712
 20
2.80476
 11
15.7712
 21
2.33834
  0
LINE
  8
0
 10
15.7712
 20
2.33834
 11
15.7597
 21
2.12242
  0
LINE
  8
0
 10
15.7597
 20
2.12242
 11
15.725
 21
1.90942
  0
LINE
  8
0
 10
15.725
 20
1.90942
 11
15.6672
 21
1.69931
  0
LINE
  8
0
 10
15.6672
 20
1.69931
 11
15.5863
 21
1.4921
  0
LINE
  8
0
 10
15.5863
 20
1.4921
 11
15.4854
 21
1.29733
  0
LINE
  8
0
 10
15.4854
 20
1.29733
 11
15.3677
 21
1.12449
  0
LINE
  8
0
 10
15.3677
 20
1.12449
 11
15.2332
 21
0.973611
  0
LINE
  8
0
 10
15.2332
 20
0.973611
 11
15.0818
 21
0.844676
  0
LINE
  8
0
 10
15.0818
 20
0.844676
 11
14.9163
 21
0.741459
  0
LINE
  8
0
 10
14.9163
 20
0.741459
 11
14.7393
 21
0.667727
  0
LINE
  8
0
 10
14.7393
 20
0.667727
 11
14.551
 21
0.623501
  0
LINE
  8
0
 10
14.551
 20
0.623501
 11
14.3513
 21
0.608747
  0
LINE
  8
0
 10
14.3513
 20
0.608747
 11
14.179
 21
0.624469
  0
LINE
  8
0
 10
38.4531
 20
-0.0821365
 11
38.6944
 21
-0.0315138
  0
LINE
  8
0
 10
38.6944
 20
-0.0315138
 11
38.9151
 21
0.0528299
  0
LINE
  8
0
 10
38.9151
 20
0.0528299
 11
39.1152
 21
0.170942
  0
LINE
  8
0
 10
39.1152
 20
0.170942
 11
39.2992
 21
0.330092
  0
LINE
  8
0
 10
39.2992
 20
0.330092
 11
39.4716
 21
0.536809
  0
LINE
  8
0
 10
39.4716
 20
0.536809
 11
39.6324
 21
0.791102
  0
LINE
  8
0
 10
39.6324
 20
0.791102
 11
39.7815
 21
1.09297
  0
LINE
  8
0
 10
39.7815
 20
1.09297
 11
39.8066
 21
1.09297
  0
LINE
  8
0
 10
39.8066
 20
1.09297
 11
39.8293
 21
0.817789
  0
LINE
  8
0
 10
39.8293
 20
0.817789
 11
39.8725
 21
0.581683
  0
LINE
  8
0
 10
39.8725
 20
0.581683
 11
39.9362
 21
0.384622
  0
LINE
  8
0
 10
39.9362
 20
0.384622
 11
40.0203
 21
0.22664
  0
LINE
  8
0
 10
40.0203
 20
0.22664
 11
40.129
 21
0.105825
  0
LINE
  8
0
 10
40.129
 20
0.105825
 11
40.2659
 21
0.019522
  0
LINE
  8
0
 10
40.2659
 20
0.019522
 11
40.4312
 21
-0.0322456
  0
LINE
  8
0
 10
40.4312
 20
-0.0322456
 11
40.6246
 21
-0.0495014
  0
LINE
  8
0
 10
40.6246
 20
-0.0495014
 11
40.7714
 21
-0.0442255
  0
LINE
  8
0
 10
40.7714
 20
-0.0442255
 11
40.9165
 21
-0.0284214
  0
LINE
  8
0
 10
40.9165
 20
-0.0284214
 11
41.0601
 21
-0.00207731
  0
LINE
  8
0
 10
41.0601
 20
-0.00207731
 11
41.202
 21
0.0348068
  0
LINE
  8
0
 10
41.202
 20
0.0348068
 11
41.202
 21
0.621896
  0
LINE
  8
0
 10
41.202
 20
0.621896
 11
41.1353
 21
0.605997
  0
LINE
  8
0
 10
41.1353
 20
0.605997
 11
41.0722
 21
0.594631
  0
LINE
  8
0
 10
41.0722
 20
0.594631
 11
41.0128
 21
0.587821
  0
LINE
  8
0
 10
41.0128
 20
0.587821
 11
40.9571
 21
0.585543
  0
LINE
  8
0
 10
40.9571
 20
0.585543
 11
40.8445
 21
0.598845
  0
LINE
  8
0
 10
40.8445
 20
0.598845
 11
40.7515
 21
0.638727
  0
LINE
  8
0
 10
40.7515
 20
0.638727
 11
40.6782
 21
0.705201
  0
LINE
  8
0
 10
40.6782
 20
0.705201
 11
40.6246
 21
0.798267
  0
LINE
  8
0
 10
40.6246
 20
0.798267
 11
40.5866
 21
0.91763
  0
LINE
  8
0
 10
40.5866
 20
0.91763
 11
40.5594
 21
1.06299
  0
LINE
  8
0
 10
40.5594
 20
1.06299
 11
40.5431
 21
1.23438
  0
LINE
  8
0
 10
40.5431
 20
1.23438
 11
40.5377
 21
1.43178
  0
LINE
  8
0
 10
40.5377
 20
1.43178
 11
40.5377
 21
3.87995
  0
LINE
  8
0
 10
40.5377
 20
3.87995
 11
40.5109
 21
4.31743
  0
LINE
  8
0
 10
40.5109
 20
4.31743
 11
40.4307
 21
4.70008
  0
LINE
  8
0
 10
40.4307
 20
4.70008
 11
40.2969
 21
5.0279
  0
LINE
  8
0
 10
40.2969
 20
5.0279
 11
40.1097
 21
5.3009
  0
LINE
  8
0
 10
40.1097
 20
5.3009
 11
39.8697
 21
5.51579
  0
LINE
  8
0
 10
39.8697
 20
5.51579
 11
39.5772
 21
5.66928
  0
LINE
  8
0
 10
39.5772
 20
5.66928
 11
39.2323
 21
5.76138
  0
LINE
  8
0
 10
39.2323
 20
5.76138
 11
38.8348
 21
5.79208
  0
LINE
  8
0
 10
38.8348
 20
5.79208
 11
38.118
 21
5.69558
  0
LINE
  8
0
 10
38.118
 20
5.69558
 11
37.5788
 21
5.4061
  0
LINE
  8
0
 10
37.5788
 20
5.4061
 11
37.217
 21
4.92362
  0
LINE
  8
0
 10
37.217
 20
4.92362
 11
37.0327
 21
4.24814
  0
LINE
  8
0
 10
37.0327
 20
4.24814
 11
37.8135
 21
4.15842
  0
LINE
  8
0
 10
37.8135
 20
4.15842
 11
37.8478
 21
4.38153
  0
LINE
  8
0
 10
37.8478
 20
4.38153
 11
37.905
 21
4.57205
  0
LINE
  8
0
 10
37.905
 20
4.57205
 11
37.985
 21
4.73
  0
LINE
  8
0
 10
37.985
 20
4.73
 11
38.0878
 21
4.85536
  0
LINE
  8
0
 10
38.0878
 20
4.85536
 11
38.2191
 21
4.95078
  0
LINE
  8
0
 10
38.2191
 20
4.95078
 11
38.3846
 21
5.01896
  0
LINE
  8
0
 10
38.3846
 20
5.01896
 11
38.5843
 21
5.05985
  0
LINE
  8
0
 10
38.5843
 20
5.05985
 11
38.8183
 21
5.07348
  0
LINE
  8
0
 10
38.8183
 20
5.07348
 11
39.0509
 21
5.05468
  0
LINE
  8
0
 10
39.0509
 20
5.05468
 11
39.2503
 21
4.99826
  0
LINE
  8
0
 10
39.2503
 20
4.99826
 11
39.4164
 21
4.90423
  0
LINE
  8
0
 10
39.4164
 20
4.90423
 11
39.5494
 21
4.77259
  0
LINE
  8
0
 10
39.5494
 20
4.77259
 11
39.6512
 21
4.59777
  0
LINE
  8
0
 10
39.6512
 20
4.59777
 11
39.7239
 21
4.37345
  0
LINE
  8
0
 10
39.7239
 20
4.37345
 11
39.7675
 21
4.09963
  0
LINE
  8
0
 10
39.7675
 20
4.09963
 11
39.7821
 21
3.7763
  0
LINE
  8
0
 10
39.7821
 20
3.7763
 11
39.7821
 21
3.46535
  0
LINE
  8
0
 10
39.7821
 20
3.46535
 11
38.773
 21
3.44446
  0
LINE
  8
0
 10
38.773
 20
3.44446
 11
38.2974
 21
3.40109
  0
LINE
  8
0
 10
38.2974
 20
3.40109
 11
37.8921
 21
3.30272
  0
LINE
  8
0
 10
37.8921
 20
3.30272
 11
37.5571
 21
3.14931
  0
LINE
  8
0
 10
37.5571
 20
3.14931
 11
37.2924
 21
2.9409
  0
LINE
  8
0
 10
37.2924
 20
2.9409
 11
37.0917
 21
2.67945
  0
LINE
  8
0
 10
37.0917
 20
2.67945
 11
36.9484
 21
2.36696
  0
LINE
  8
0
 10
36.9484
 20
2.36696
 11
36.8624
 21
2.0034
  0
LINE
  8
0
 10
36.8624
 20
2.0034
 11
36.8337
 21
1.58879
  0
LINE
  8
0
 10
36.8337
 20
1.58879
 11
36.855
 21
1.21679
  0
LINE
  8
0
 10
36.855
 20
1.21679
 11
36.9189
 21
0.886635
  0
LINE
  8
0
 10
36.9189
 20
0.886635
 11
37.0252
 21
0.598361
  0
LINE
  8
0
 10
37.0252
 20
0.598361
 11
37.1742
 21
0.351939
  0
LINE
  8
0
 10
37.1742
 20
0.351939
 11
37.3654
 21
0.154654
  0
LINE
  8
0
 10
37.3654
 20
0.154654
 11
37.5987
 21
0.0137268
  0
LINE
  8
0
 10
37.5987
 20
0.0137268
 11
37.874
 21
-0.0708175
  0
LINE
  8
0
 10
37.874
 20
-0.0708175
 11
38.1913
 21
-0.0990029
  0
LINE
  8
0
 10
38.1913
 20
-0.0990029
 11
38.4531
 21
-0.0821365
  0
LINE
  8
0
 10
38.1898
 20
0.624469
 11
38.0386
 21
0.671598
  0
LINE
  8
0
 10
38.0386
 20
0.671598
 11
37.9085
 21
0.750158
  0
LINE
  8
0
 10
37.9085
 20
0.750158
 11
37.7994
 21
0.86015
  0
LINE
  8
0
 10
37.7994
 20
0.86015
 11
37.7131
 21
0.998987
  0
LINE
  8
0
 10
37.7131
 20
0.998987
 11
37.6515
 21
1.16413
  0
LINE
  8
0
 10
37.6515
 20
1.16413
 11
37.6145
 21
1.35558
  0
LINE
  8
0
 10
37.6145
 20
1.35558
 11
37.6022
 21
1.57333
  0
LINE
  8
0
 10
37.6022
 20
1.57333
 11
37.6113
 21
1.77545
  0
LINE
  8
0
 10
37.6113
 20
1.77545
 11
37.6385
 21
1.95718
  0
LINE
  8
0
 10
37.6385
 20
1.95718
 11
37.6838
 21
2.11851
  0
LINE
  8
0
 10
37.6838
 20
2.11851
 11
37.7473
 21
2.25943
  0
LINE
  8
0
 10
37.7473
 20
2.25943
 11
37.8281
 21
2.38199
  0
LINE
  8
0
 10
37.8281
 20
2.38199
 11
37.9246
 21
2.48743
  0
LINE
  8
0
 10
37.9246
 20
2.48743
 11
38.0369
 21
2.57575
  0
LINE
  8
0
 10
38.0369
 20
2.57575
 11
38.1649
 21
2.64697
  0
LINE
  8
0
 10
38.1649
 20
2.64697
 11
38.3168
 21
2.70281
  0
LINE
  8
0
 10
38.3168
 20
2.70281
 11
38.5006
 21
2.74424
  0
LINE
  8
0
 10
38.5006
 20
2.74424
 11
38.7164
 21
2.77127
  0
LINE
  8
0
 10
38.7164
 20
2.77127
 11
38.964
 21
2.78388
  0
LINE
  8
0
 10
38.964
 20
2.78388
 11
39.7821
 21
2.80476
  0
LINE
  8
0
 10
39.7821
 20
2.80476
 11
39.7821
 21
2.33834
  0
LINE
  8
0
 10
39.7821
 20
2.33834
 11
39.7705
 21
2.12242
  0
LINE
  8
0
 10
39.7705
 20
2.12242
 11
39.7358
 21
1.90942
  0
LINE
  8
0
 10
39.7358
 20
1.90942
 11
39.678
 21
1.69931
  0
LINE
  8
0
 10
39.678
 20
1.69931
 11
39.5971
 21
1.4921
  0
LINE
  8
0
 10
39.5971
 20
1.4921
 11
39.4963
 21
1.29733
  0
LINE
  8
0
 10
39.4963
 20
1.29733
 11
39.3785
 21
1.12449
  0
LINE
  8
0
 10
39.3785
 20
1.12449
 11
39.244
 21
0.973611
  0
LINE
  8
0
 10
39.244
 20
0.973611
 11
39.0926
 21
0.844676
  0
LINE
  8
0
 10
39.0926
 20
0.844676
 11
38.9271
 21
0.741459
  0
LINE
  8
0
 10
38.9271
 20
0.741459
 11
38.7502
 21
0.667727
  0
LINE
  8
0
 10
38.7502
 20
0.667727
 11
38.5618
 21
0.623501
  0
LINE
  8
0
 10
38.5618
 20
0.623501
 11
38.3621
 21
0.608747
  0
LINE
  8
0
 10
38.3621
 20
0.608747
 11
38.1898
 21
0.624469
  0
LINE
  8
0
 10
7.97828
 20
-0.0821365
 11
8.21957
 21
-0.0315138
  0
LINE
  8
0
 10
8.21957
 20
-0.0315138
 11
8.44028
 21
0.0528299
  0
LINE
  8
0
 10
8.44028
 20
0.0528299
 11
8.64039
 21
0.170942
  0
LINE
  8
0
 10
8.64039
 20
0.170942
 11
8.82439
 21
0.330092
  0
LINE
  8
0
 10
8.82439
 20
0.330092
 11
8.99676
 21
0.536809
  0
LINE
  8
0
 10
8.99676
 20
0.536809
 11
9.15749
 21
0.791102
  0
LINE
  8
0
 10
9.15749
 20
0.791102
 11
9.30659
 21
1.09297
  0
LINE
  8
0
 10
9.30659
 20
1.09297
 11
9.3317
 21
1.09297
  0
LINE
  8
0
 10
9.3317
 20
1.09297
 11
9.35447
 21
0.817789
  0
LINE
  8
0
 10
9.35447
 20
0.817789
 11
9.39768
 21
0.581683
  0
LINE
  8
0
 10
9.39768
 20
0.581683
 11
9.46132
 21
0.384622
  0
LINE
  8
0
 10
9.46132
 20
0.384622
 11
9.5454
 21
0.22664
  0
LINE
  8
0
 10
9.5454
 20
0.22664
 11
9.65412
 21
0.105825
  0
LINE
  8
0
 10
9.65412
 20
0.105825
 11
9.79109
 21
0.019522
  0
LINE
  8
0
 10
9.79109
 20
0.019522
 11
9.9563
 21
-0.0322456
  0
LINE
  8
0
 10
9.9563
 20
-0.0322456
 11
10.1498
 21
-0.0495014
  0
LINE
  8
0
 10
10.1498
 20
-0.0495014
 11
10.2965
 21
-0.0442255
  0
LINE
  8
0
 10
10.2965
 20
-0.0442255
 11
10.4417
 21
-0.0284214
  0
LINE
  8
0
 10
10.4417
 20
-0.0284214
 11
10.5852
 21
-0.00207731
  0
LINE
  8
0
 10
10.5852
 20
-0.00207731
 11
10.7272
 21
0.0348068
  0
LINE
  8
0
 10
10.7272
 20
0.0348068
 11
10.7272
 21
0.621896
  0
LINE
  8
0
 10
10.7272
 20
0.621896
 11
10.6604
 21
0.605997
  0
LINE
  8
0
 10
10.6604
 20
0.605997
 11
10.5974
 21
0.594631
  0
LINE
  8
0
 10
10.5974
 20
0.594631
 11
10.538
 21
0.587821
  0
LINE
  8
0
 10
10.538
 20
0.587821
 11
10.4822
 21
0.585543
  0
LINE
  8
0
 10
10.4822
 20
0.585543
 11
10.3696
 21
0.598845
  0
LINE
  8
0
 10
10.3696
 20
0.598845
 11
10.2767
 21
0.638727
  0
LINE
  8
0
 10
10.2767
 20
0.638727
 11
10.2034
 21
0.705201
  0
LINE
  8
0
 10
10.2034
 20
0.705201
 11
10.1498
 21
0.798267
  0
LINE
  8
0
 10
10.1498
 20
0.798267
 11
10.1117
 21
0.91763
  0
LINE
  8
0
 10
10.1117
 20
0.91763
 11
10.0845
 21
1.06299
  0
LINE
  8
0
 10
10.0845
 20
1.06299
 11
10.0682
 21
1.23438
  0
LINE
  8
0
 10
10.0682
 20
1.23438
 11
10.0628
 21
1.43178
  0
LINE
  8
0
 10
10.0628
 20
1.43178
 11
10.0628
 21
3.87995
  0
LINE
  8
0
 10
10.0628
 20
3.87995
 11
10.0361
 21
4.31743
  0
LINE
  8
0
 10
10.0361
 20
4.31743
 11
9.95581
 21
4.70008
  0
LINE
  8
0
 10
9.95581
 20
4.70008
 11
9.82205
 21
5.0279
  0
LINE
  8
0
 10
9.82205
 20
5.0279
 11
9.63479
 21
5.3009
  0
LINE
  8
0
 10
9.63479
 20
5.3009
 11
9.39484
 21
5.51579
  0
LINE
  8
0
 10
9.39484
 20
5.51579
 11
9.10239
 21
5.66928
  0
LINE
  8
0
 10
9.10239
 20
5.66928
 11
8.75741
 21
5.76138
  0
LINE
  8
0
 10
8.75741
 20
5.76138
 11
8.35994
 21
5.79208
  0
LINE
  8
0
 10
8.35994
 20
5.79208
 11
7.64318
 21
5.69558
  0
LINE
  8
0
 10
7.64318
 20
5.69558
 11
7.10393
 21
5.4061
  0
LINE
  8
0
 10
7.10393
 20
5.4061
 11
6.74216
 21
4.92362
  0
LINE
  8
0
 10
6.74216
 20
4.92362
 11
6.55789
 21
4.24814
  0
LINE
  8
0
 10
6.55789
 20
4.24814
 11
7.33859
 21
4.15842
  0
LINE
  8
0
 10
7.33859
 20
4.15842
 11
7.37297
 21
4.38153
  0
LINE
  8
0
 10
7.37297
 20
4.38153
 11
7.43014
 21
4.57205
  0
LINE
  8
0
 10
7.43014
 20
4.57205
 11
7.51013
 21
4.73
  0
LINE
  8
0
 10
7.51013
 20
4.73
 11
7.61291
 21
4.85536
  0
LINE
  8
0
 10
7.61291
 20
4.85536
 11
7.74422
 21
4.95078
  0
LINE
  8
0
 10
7.74422
 20
4.95078
 11
7.90974
 21
5.01896
  0
LINE
  8
0
 10
7.90974
 20
5.01896
 11
8.10947
 21
5.05985
  0
LINE
  8
0
 10
8.10947
 20
5.05985
 11
8.34341
 21
5.07348
  0
LINE
  8
0
 10
8.34341
 20
5.07348
 11
8.57602
 21
5.05468
  0
LINE
  8
0
 10
8.57602
 20
5.05468
 11
8.77541
 21
4.99826
  0
LINE
  8
0
 10
8.77541
 20
4.99826
 11
8.94157
 21
4.90423
  0
LINE
  8
0
 10
8.94157
 20
4.90423
 11
9.07452
 21
4.77259
  0
LINE
  8
0
 10
9.07452
 20
4.77259
 11
9.17632
 21
4.59777
  0
LINE
  8
0
 10
9.17632
 20
4.59777
 11
9.24904
 21
4.37345
  0
LINE
  8
0
 10
9.24904
 20
4.37345
 11
9.29266
 21
4.09963
  0
LINE
  8
0
 10
9.29266
 20
4.09963
 11
9.30721
 21
3.7763
  0
LINE
  8
0
 10
9.30721
 20
3.7763
 11
9.30721
 21
3.46535
  0
LINE
  8
0
 10
9.30721
 20
3.46535
 11
8.2981
 21
3.44446
  0
LINE
  8
0
 10
8.2981
 20
3.44446
 11
7.82256
 21
3.40109
  0
LINE
  8
0
 10
7.82256
 20
3.40109
 11
7.41728
 21
3.30272
  0
LINE
  8
0
 10
7.41728
 20
3.30272
 11
7.08226
 21
3.14931
  0
LINE
  8
0
 10
7.08226
 20
3.14931
 11
6.81751
 21
2.9409
  0
LINE
  8
0
 10
6.81751
 20
2.9409
 11
6.61687
 21
2.67945
  0
LINE
  8
0
 10
6.61687
 20
2.67945
 11
6.47354
 21
2.36696
  0
LINE
  8
0
 10
6.47354
 20
2.36696
 11
6.38755
 21
2.0034
  0
LINE
  8
0
 10
6.38755
 20
2.0034
 11
6.35889
 21
1.58879
  0
LINE
  8
0
 10
6.35889
 20
1.58879
 11
6.38016
 21
1.21679
  0
LINE
  8
0
 10
6.38016
 20
1.21679
 11
6.444
 21
0.886635
  0
LINE
  8
0
 10
6.444
 20
0.886635
 11
6.55039
 21
0.598361
  0
LINE
  8
0
 10
6.55039
 20
0.598361
 11
6.69934
 21
0.351939
  0
LINE
  8
0
 10
6.69934
 20
0.351939
 11
6.89057
 21
0.154654
  0
LINE
  8
0
 10
6.89057
 20
0.154654
 11
7.12383
 21
0.0137268
  0
LINE
  8
0
 10
7.12383
 20
0.0137268
 11
7.3991
 21
-0.0708175
  0
LINE
  8
0
 10
7.3991
 20
-0.0708175
 11
7.7164
 21
-0.0990029
  0
LINE
  8
0
 10
7.7164
 20
-0.0990029
 11
7.97828
 21
-0.0821365
  0
LINE
  8
0
 10
7.71499
 20
0.624469
 11
7.56378
 21
0.671598
  0
LINE
  8
0
 10
7.56378
 20
0.671598
 11
7.43362
 21
0.750158
  0
LINE
  8
0
 10
7.43362
 20
0.750158
 11
7.32451
 21
0.86015
  0
LINE
  8
0
 10
7.32451
 20
0.86015
 11
7.23826
 21
0.998987
  0
LINE
  8
0
 10
7.23826
 20
0.998987
 11
7.17664
 21
1.16413
  0
LINE
  8
0
 10
7.17664
 20
1.16413
 11
7.13967
 21
1.35558
  0
LINE
  8
0
 10
7.13967
 20
1.35558
 11
7.12734
 21
1.57333
  0
LINE
  8
0
 10
7.12734
 20
1.57333
 11
7.13642
 21
1.77545
  0
LINE
  8
0
 10
7.13642
 20
1.77545
 11
7.16362
 21
1.95718
  0
LINE
  8
0
 10
7.16362
 20
1.95718
 11
7.20898
 21
2.11851
  0
LINE
  8
0
 10
7.20898
 20
2.11851
 11
7.27246
 21
2.25943
  0
LINE
  8
0
 10
7.27246
 20
2.25943
 11
7.35322
 21
2.38199
  0
LINE
  8
0
 10
7.35322
 20
2.38199
 11
7.44973
 21
2.48743
  0
LINE
  8
0
 10
7.44973
 20
2.48743
 11
7.56202
 21
2.57575
  0
LINE
  8
0
 10
7.56202
 20
2.57575
 11
7.69007
 21
2.64697
  0
LINE
  8
0
 10
7.69007
 20
2.64697
 11
7.84196
 21
2.70281
  0
LINE
  8
0
 10
7.84196
 20
2.70281
 11
8.02577
 21
2.74424
  0
LINE
  8
0
 10
8.02577
 20
2.74424
 11
8.2415
 21
2.77127
  0
LINE
  8
0
 10
8.2415
 20
2.77127
 11
8.48914
 21
2.78388
  0
LINE
  8
0
 10
8.48914
 20
2.78388
 11
9.30721
 21
2.80476
  0
LINE
  8
0
 10
9.30721
 20
2.80476
 11
9.30721
 21
2.33834
  0
LINE
  8
0
 10
9.30721
 20
2.33834
 11
9.29565
 21
2.12242
  0
LINE
  8
0
 10
9.29565
 20
2.12242
 11
9.26098
 21
1.90942
  0
LINE
  8
0
 10
9.26098
 20
1.90942
 11
9.20319
 21
1.69931
  0
LINE
  8
0
 10
9.20319
 20
1.69931
 11
9.12229
 21
1.4921
  0
LINE
  8
0
 10
9.12229
 20
1.4921
 11
9.02141
 21
1.29733
  0
LINE
  8
0
 10
9.02141
 20
1.29733
 11
8.90368
 21
1.12449
  0
LINE
  8
0
 10
8.90368
 20
1.12449
 11
8.76913
 21
0.973611
  0
LINE
  8
0
 10
8.76913
 20
0.973611
 11
8.61773
 21
0.844676
  0
LINE
  8
0
 10
8.61773
 20
0.844676
 11
8.45222
 21
0.741459
  0
LINE
  8
0
 10
8.45222
 20
0.741459
 11
8.27529
 21
0.667727
  0
LINE
  8
0
 10
8.27529
 20
0.667727
 11
8.08697
 21
0.623501
  0
LINE
  8
0
 10
8.08697
 20
0.623501
 11
7.88724
 21
0.608747
  0
LINE
  8
0
 10
7.88724
 20
0.608747
 11
7.71499
 21
0.624469
  0
LINE
  8
0
 10
27.0568
 20
-0.0147891
 11
27.5786
 21
0.237852
  0
LINE
  8
0
 10
27.5786
 20
0.237852
 11
27.9722
 21
0.658933
  0
LINE
  8
0
 10
27.9722
 20
0.658933
 11
28.2378
 21
1.24845
  0
LINE
  8
0
 10
28.2378
 20
1.24845
 11
27.582
 21
1.48515
  0
LINE
  8
0
 10
27.582
 20
1.48515
 11
27.5181
 21
1.30347
  0
LINE
  8
0
 10
27.5181
 20
1.30347
 11
27.4307
 21
1.13823
  0
LINE
  8
0
 10
27.4307
 20
1.13823
 11
27.3197
 21
0.989415
  0
LINE
  8
0
 10
27.3197
 20
0.989415
 11
27.1852
 21
0.857045
  0
LINE
  8
0
 10
27.1852
 20
0.857045
 11
27.0268
 21
0.748423
  0
LINE
  8
0
 10
27.0268
 20
0.748423
 11
26.8443
 21
0.670831
  0
LINE
  8
0
 10
26.8443
 20
0.670831
 11
26.6376
 21
0.624268
  0
LINE
  8
0
 10
26.6376
 20
0.624268
 11
26.4069
 21
0.608747
  0
LINE
  8
0
 10
26.4069
 20
0.608747
 11
26.118
 21
0.641819
  0
LINE
  8
0
 10
26.118
 20
0.641819
 11
25.8659
 21
0.741023
  0
LINE
  8
0
 10
25.8659
 20
0.741023
 11
25.6508
 21
0.906358
  0
LINE
  8
0
 10
25.6508
 20
0.906358
 11
25.4725
 21
1.13784
  0
LINE
  8
0
 10
25.4725
 20
1.13784
 11
25.3327
 21
1.43056
  0
LINE
  8
0
 10
25.3327
 20
1.43056
 11
25.2328
 21
1.77889
  0
LINE
  8
0
 10
25.2328
 20
1.77889
 11
25.1729
 21
2.18281
  0
LINE
  8
0
 10
25.1729
 20
2.18281
 11
25.1529
 21
2.64232
  0
LINE
  8
0
 10
25.1529
 20
2.64232
 11
28.3584
 21
2.64232
  0
LINE
  8
0
 10
28.3584
 20
2.64232
 11
28.3584
 21
2.76841
  0
LINE
  8
0
 10
28.3584
 20
2.76841
 11
28.2346
 21
4.09127
  0
LINE
  8
0
 10
28.2346
 20
4.09127
 11
27.8632
 21
5.03616
  0
LINE
  8
0
 10
27.8632
 20
5.03616
 11
27.2442
 21
5.60311
  0
LINE
  8
0
 10
27.2442
 20
5.60311
 11
26.3775
 21
5.79208
  0
LINE
  8
0
 10
26.3775
 20
5.79208
 11
25.9217
 21
5.74514
  0
LINE
  8
0
 10
25.9217
 20
5.74514
 11
25.5217
 21
5.60431
  0
LINE
  8
0
 10
25.5217
 20
5.60431
 11
25.1774
 21
5.3696
  0
LINE
  8
0
 10
25.1774
 20
5.3696
 11
24.889
 21
5.041
  0
LINE
  8
0
 10
24.889
 20
5.041
 11
24.661
 21
4.6248
  0
LINE
  8
0
 10
24.661
 20
4.6248
 11
24.4982
 21
4.12651
  0
LINE
  8
0
 10
24.4982
 20
4.12651
 11
24.4005
 21
3.54613
  0
LINE
  8
0
 10
24.4005
 20
3.54613
 11
24.3679
 21
2.88367
  0
LINE
  8
0
 10
24.3679
 20
2.88367
 11
24.4005
 21
2.18866
  0
LINE
  8
0
 10
24.4005
 20
2.18866
 11
24.4982
 21
1.58493
  0
LINE
  8
0
 10
24.4982
 20
1.58493
 11
24.661
 21
1.07247
  0
LINE
  8
0
 10
24.661
 20
1.07247
 11
24.889
 21
0.651297
  0
LINE
  8
0
 10
24.889
 20
0.651297
 11
25.1793
 21
0.323034
  0
LINE
  8
0
 10
25.1793
 20
0.323034
 11
25.529
 21
0.0885573
  0
LINE
  8
0
 10
25.529
 20
0.0885573
 11
25.9382
 21
-0.0521099
  0
LINE
  8
0
 10
25.9382
 20
-0.0521099
 11
26.4069
 21
-0.0990029
  0
LINE
  8
0
 10
26.4069
 20
-0.0990029
 11
27.0568
 21
-0.0147891
  0
LINE
  8
0
 10
25.1609
 20
3.36633
 11
25.1917
 21
3.74778
  0
LINE
  8
0
 10
25.1917
 20
3.74778
 11
25.259
 21
4.08609
  0
LINE
  8
0
 10
25.259
 20
4.08609
 11
25.3628
 21
4.38129
  0
LINE
  8
0
 10
25.3628
 20
4.38129
 11
25.5031
 21
4.63335
  0
LINE
  8
0
 10
25.5031
 20
4.63335
 11
25.6762
 21
4.83505
  0
LINE
  8
0
 10
25.6762
 20
4.83505
 11
25.8774
 21
4.97912
  0
LINE
  8
0
 10
25.8774
 20
4.97912
 11
26.1069
 21
5.06555
  0
LINE
  8
0
 10
26.1069
 20
5.06555
 11
26.3647
 21
5.09438
  0
LINE
  8
0
 10
26.3647
 20
5.09438
 11
26.6287
 21
5.0685
  0
LINE
  8
0
 10
26.6287
 20
5.0685
 11
26.86
 21
4.99091
  0
LINE
  8
0
 10
26.86
 20
4.99091
 11
27.0586
 21
4.86159
  0
LINE
  8
0
 10
27.0586
 20
4.86159
 11
27.2244
 21
4.68054
  0
LINE
  8
0
 10
27.2244
 20
4.68054
 11
27.359
 21
4.4435
  0
LINE
  8
0
 10
27.359
 20
4.4435
 11
27.4641
 21
4.14546
  0
LINE
  8
0
 10
27.4641
 20
4.14546
 11
27.5396
 21
3.7864
  0
LINE
  8
0
 10
27.5396
 20
3.7864
 11
27.5856
 21
3.36633
  0
LINE
  8
0
 10
27.5856
 20
3.36633
 11
25.1609
 21
3.36633
  0
LINE
  8
0
 10
11.1696
 20
-2.20505
 11
11.3721
 21
-2.13702
  0
LINE
  8
0
 10
11.3721
 20
-2.13702
 11
11.5434
 21
-2.02366
  0
LINE
  8
0
 10
11.5434
 20
-2.02366
 11
11.6836
 21
-1.86494
  0
LINE
  8
0
 10
11.6836
 20
-1.86494
 11
11.7926
 21
-1.656
  0
LINE
  8
0
 10
11.7926
 20
-1.656
 11
11.8705
 21
-1.39194
  0
LINE
  8
0
 10
11.8705
 20
-1.39194
 11
11.9172
 21
-1.07277
  0
LINE
  8
0
 10
11.9172
 20
-1.07277
 11
11.9328
 21
-0.698485
  0
LINE
  8
0
 10
11.9328
 20
-0.698485
 11
11.9328
 21
5.69307
  0
LINE
  8
0
 10
11.9328
 20
5.69307
 11
11.1852
 21
5.69307
  0
LINE
  8
0
 10
11.1852
 20
5.69307
 11
11.1852
 21
-0.5577
  0
LINE
  8
0
 10
11.1852
 20
-0.5577
 11
11.1779
 21
-0.808748
  0
LINE
  8
0
 10
11.1779
 20
-0.808748
 11
11.1561
 21
-1.01504
  0
LINE
  8
0
 10
11.1561
 20
-1.01504
 11
11.1197
 21
-1.17656
  0
LINE
  8
0
 10
11.1197
 20
-1.17656
 11
11.0688
 21
-1.29332
  0
LINE
  8
0
 10
11.0688
 20
-1.29332
 11
11
 21
-1.37622
  0
LINE
  8
0
 10
11
 20
-1.37622
 11
10.9099
 21
-1.43545
  0
LINE
  8
0
 10
10.9099
 20
-1.43545
 11
10.7986
 21
-1.47097
  0
LINE
  8
0
 10
10.7986
 20
-1.47097
 11
10.6659
 21
-1.48282
  0
LINE
  8
0
 10
10.6659
 20
-1.48282
 11
10.4088
 21
-1.45111
  0
LINE
  8
0
 10
10.4088
 20
-1.45111
 11
10.4088
 21
-2.18053
  0
LINE
  8
0
 10
10.4088
 20
-2.18053
 11
10.5195
 21
-2.20117
  0
LINE
  8
0
 10
10.5195
 20
-2.20117
 11
10.6443
 21
-2.21593
  0
LINE
  8
0
 10
10.6443
 20
-2.21593
 11
10.7831
 21
-2.22477
  0
LINE
  8
0
 10
10.7831
 20
-2.22477
 11
10.936
 21
-2.22772
  0
LINE
  8
0
 10
10.936
 20
-2.22772
 11
11.1696
 21
-2.20505
  0
ENDSEC
  0
SECTION
  2
OBJECTS
  0
DICTIONARY
  0
ENDSEC
  0
EOF
